<svg xmlns="http://www.w3.org/2000/svg" viewBox="0 0 2103.56 1335.4"><defs><style>.cls-1,.cls-24,.cls-6,.cls-9{fill:#fff;}.cls-2{opacity:0.2;}.cls-3{fill:#426572;}.cls-4{fill:#ff6e60;}.cls-21,.cls-22,.cls-5{fill:#be3c37;}.cls-25,.cls-5{opacity:0.5;}.cls-22,.cls-24,.cls-25,.cls-5,.cls-6,.cls-9{isolation:isolate;}.cls-6{opacity:0.1;}.cls-7{fill:#ea9178;}.cls-8{fill:#a76c59;}.cls-9{opacity:0.2;}.cls-10{fill:#00aaf8;}.cls-11{fill:#32caf8;}.cls-12{fill:#bccfd3;}.cls-13{fill:#fbd166;}.cls-14,.cls-22{opacity:0.4;}.cls-15{fill:#f8bb8b;}.cls-16{fill:#c0916d;}.cls-17{fill:#ea8b6c;}.cls-18{fill:#de7f64;}.cls-19{fill:#f29f8a;}.cls-20{fill:#fcba64;}.cls-23{fill:#4c4c4c;}.cls-24{font-size:25.78px;font-family:FiraSans-Bold, Fira Sans;font-weight:700;}.cls-25{fill:#566e86;}.cls-26{fill:#5a7984;}.cls-27{fill:#30425a;}.cls-28{fill:#718596;}.cls-29{fill:#6b7e8d;}</style></defs><title>Asset 560</title><g id="Layer_2" data-name="Layer 2"><g id="Layer_1-2" data-name="Layer 1"><path class="cls-1" d="M1762,113.31V767.2a15.49,15.49,0,0,1-15.34,15.64H407.56a15.5,15.5,0,0,1-15.34-15.64V113.35A15.51,15.51,0,0,1,407.56,97.7l1339.08,0A15.49,15.49,0,0,1,1762,113.31Z"/><g class="cls-2"><path class="cls-3" d="M252.2,426.71H50.92V331.14H252.2Zm-189.29-12H240.2V343.14H62.92Z"/><path class="cls-3" d="M332.56,510.64H131.27V415.07H332.56Zm-189.29-12H320.56V427.07H143.27Z"/></g><g class="cls-2"><path class="cls-3" d="M2103.56,535.71H1902.27V440.14h201.29Zm-189.29-12h177.29V452.14H1914.27Z"/><path class="cls-3" d="M2023.2,619.64H1821.92V524.07H2023.2Zm-189.29-12H2011.2V536.07H1833.92Z"/></g><g class="cls-2"><path class="cls-3" d="M548.56,1201.71H347.27v-95.57H548.56Zm-189.29-12H536.56v-71.57H359.27Z"/><path class="cls-3" d="M468.2,1285.64H266.92v-95.57H468.2Zm-189.29-12H456.2v-71.57H278.92Z"/></g><path class="cls-4" d="M1833.6,838.66h59.77a31.21,31.21,0,0,1,31.21,31.21V991.39H1802.39V869.87A31.21,31.21,0,0,1,1833.6,838.66Z"/><path class="cls-5" d="M1924.58,867V983.45a8,8,0,0,1-8,8L1808.5,994c-6.22,0-8.75-5.07-8.75-11.28V964.06a.61.61,0,0,1,.61-.61,154.28,154.28,0,0,0,35.91-3.38c21.15-4.66,41.79-15.47,53.81-33.51a90.4,90.4,0,0,0,11.55-27.23,156.58,156.58,0,0,0,3.92-59.93.64.64,0,0,1,.91-.64C1915.69,842.82,1924.58,856.41,1924.58,867Z"/><path class="cls-6" d="M1828.67,841.23v9a113.74,113.74,0,0,1-30.13,77.09h0l1.28-58.14,4.54-10.63a14.86,14.86,0,0,1,4.83-10.57l8-9,.3-.44Z"/><polyline class="cls-7" points="176.77 1022.2 176.77 1328.4 216.19 1328.4 216.19 1019.87"/><polyline class="cls-8" points="176.77 1026.76 176.77 1044.63 216.19 1044.63 216.19 1026.63"/><rect class="cls-3" x="210.19" y="1020.87" width="12" height="308.53"/><rect class="cls-3" x="170.77" y="1023.2" width="12" height="306.2"/><polyline class="cls-7" points="1766.77 1022.2 1766.77 1328.4 1806.19 1328.4 1806.19 1019.87"/><polyline class="cls-8" points="1766.77 1026.76 1766.77 1044.63 1806.19 1044.63 1806.19 1026.63"/><polygon class="cls-3" points="1812.19 1335.4 1760.77 1335.4 1760.77 1023.2 1772.77 1023.2 1772.77 1323.4 1800.19 1323.4 1800.19 1020.87 1812.19 1020.87 1812.19 1335.4"/><rect class="cls-7" x="46.03" y="993.96" width="1913.58" height="37.16"/><rect class="cls-8" x="48.8" y="996.09" width="1913.58" height="6.38"/><polygon class="cls-9" points="1942.45 989.75 1942.45 1020.32 58.3 1020.32 58.3 989.75 43.6 989.75 43.6 1026.91 1957.18 1026.91 1957.18 989.75 1942.45 989.75"/><rect class="cls-10" x="439.46" y="136.64" width="1294.15" height="610.74"/><rect class="cls-11" x="463.61" y="153.8" width="1245" height="572.06" rx="40.54" ry="40.54"/><path class="cls-3" d="M1751.64,791.84H412.56a21.52,21.52,0,0,1-21.34-21.64V116.35A21.52,21.52,0,0,1,412.56,94.7l1339.08,0A21.52,21.52,0,0,1,1773,116.31V770.2A21.52,21.52,0,0,1,1751.64,791.84Zm0-685.18-1339.08,0a9.51,9.51,0,0,0-9.34,9.65V770.2a9.51,9.51,0,0,0,9.34,9.64H1751.64a9.51,9.51,0,0,0,9.34-9.64V116.31A9.51,9.51,0,0,0,1751.64,106.67Z"/><rect class="cls-1" x="516.55" y="214.44" width="172.29" height="3.38"/><rect class="cls-1" x="516.55" y="230.49" width="172.29" height="3.38"/><rect class="cls-1" x="516.55" y="251.6" width="172.29" height="3.38"/><rect class="cls-1" x="516.55" y="267.65" width="172.29" height="3.38"/><rect class="cls-1" x="513.17" y="319.16" width="172.29" height="3.38"/><rect class="cls-1" x="513.17" y="335.21" width="172.29" height="3.38"/><rect class="cls-1" x="513.17" y="352.95" width="172.29" height="3.38"/><rect class="cls-1" x="513.17" y="368.99" width="172.29" height="3.38"/><path class="cls-3" d="M1736.61,751.38H430.46V128.64H1736.61Zm-1294.15-12H1724.61V140.64H442.46Z"/><polyline class="cls-12" points="641.13 997.17 641.13 956.8 1517.34 956.8 1517.34 999.16"/><polygon class="cls-3" points="1522.34 999.16 1510.34 999.16 1510.34 962.8 646.13 962.8 646.13 997.17 634.13 997.17 634.13 950.8 1522.34 950.8 1522.34 999.16"/><path class="cls-13" d="M763.63,838.12a544.26,544.26,0,0,0-57.43,125.5,28.44,28.44,0,0,0,27,37.16h40Z"/><path class="cls-3" d="M779.62,1004.64h-46.4a34.44,34.44,0,0,1-32.74-45,550.48,550.48,0,0,1,58-126.83l10-16ZM758.79,855.78a538.6,538.6,0,0,0-46.86,107.48,22.44,22.44,0,0,0,21.31,29.38h33.66Z"/><path class="cls-13" d="M1401.16,836.06a514.26,514.26,0,0,1,68,152.9h-77.7Z"/><g class="cls-14"><polygon class="cls-1" points="996.49 167.31 791.63 739.34 705.49 739.34 910.34 167.31 996.49 167.31"/><polygon class="cls-1" points="1095.81 167.31 890.95 739.34 847.88 739.34 1052.73 167.31 1095.81 167.31"/></g><g class="cls-14"><polygon class="cls-1" points="1270.12 147.04 1065.27 719.07 979.12 719.07 1183.98 147.04 1270.12 147.04"/><polygon class="cls-1" points="1369.44 147.04 1164.59 719.07 1121.51 719.07 1326.37 147.04 1369.44 147.04"/></g><rect class="cls-15" x="1011.72" y="499.09" width="140.3" height="71.48"/><path class="cls-3" d="M1158,571.57h-152.3V488.09H1158Zm-140.3-12H1146V500.09h-128.3Z"/><rect class="cls-16" x="1017.03" y="496.45" width="26.48" height="71.48"/><path class="cls-17" d="M870.65,186C842,258.46,859,346.87,912.54,403.52a19.39,19.39,0,0,0,8.18-15.3A186.37,186.37,0,0,0,999.9,507.36l2.3-18.65c20.27.51,14.32,43.92,34.66,44.63,15.2.44,22.5-26.69,37.16-22.36,7.4,2.2,9.83,11.28,14.8,17.19,10.13,12,33.48,6.22,36.89-9.12,21.76,12.47,49.93,6.42,71.28-6.76,43.54-26.79,65.87-77.26,82.43-125.63,24.76-72.33,42.6-149.48,30.17-224.92"/><path class="cls-17" d="M869.23,186.06C891.8,93.3,945.37,35.29,1022.6,13.2c22.33-6.38,45.84-7.33,69.05-6.55,52.8,1.82,106.89,13.28,149.92,43.92,43.92,31.18,65.71,70.94,70.2,135.53"/><path class="cls-18" d="M1279.27,339.06c-16.55,48.38-38.88,98.85-82.43,125.63-21.35,13.14-49.52,19.15-71.28,6.76-3.38,15.34-26.76,21.11-36.89,9.12-5-5.91-7.4-15-14.8-17.19-14.59-4.32-21.89,22.84-37.16,22.36-20.27-.61-14.32-44.12-34.66-44.63l-2.3,18.65a186.37,186.37,0,0,1-79.12-119.15,19.39,19.39,0,0,1-8.18,15.3A208.64,208.64,0,0,1,858,234.84c-6.42,59.66,13.14,122.29,54.49,166a19.39,19.39,0,0,0,8.18-15.3A186.38,186.38,0,0,0,999.9,504.69l2.3-18.65c20.27.51,14.32,43.92,34.66,44.63,15.2.44,22.5-26.69,37.16-22.36,7.4,2.2,9.83,11.28,14.8,17.19,10.13,12,33.48,6.22,36.89-9.12,21.76,12.47,49.93,6.42,71.28-6.76,43.54-26.79,65.87-77.26,82.43-125.63,21.62-63.1,37.94-129.93,33.48-195.93C1309.54,239.2,1296,290.25,1279.27,339.06Z"/><path class="cls-19" d="M1306.44,159.82l-8.21.44c-11.15-32.57-30.4-56.79-59.29-77.29C1195.83,52.35,1141.78,40.9,1089,39.25c-23.21-.81-46.75,0-69.05,6.55C953,65,903.72,111.1,877.2,183.67l-9.22.51h-1.35C889.16,91.31,942.77,33.4,1020,11.31,1042.29,4.93,1065.81,4,1089,4.76c52.8,1.82,106.85,13.28,149.92,43.92C1276.91,75.66,1298.5,109.18,1306.44,159.82Z"/><path class="cls-20" d="M789.37,898.9c0-164.43,133.29-297.72,297.72-297.72h0a297.75,297.75,0,0,1,295.05,258v-2.6c0-164.43-133.33-297.7-297.75-297.69h0c-164.43,0-297.72,133.29-297.72,297.72h0v326.06h2.63Z"/><rect class="cls-1" x="705.73" y="214.44" width="40.54" height="3.38"/><rect class="cls-1" x="705.73" y="251.6" width="40.54" height="3.38"/><rect class="cls-1" x="702.35" y="319.16" width="40.54" height="3.38"/><rect class="cls-1" x="702.35" y="352.95" width="40.54" height="3.38"/><rect class="cls-4" x="77.28" y="796.3" width="222.35" height="198.54" rx="40.54" ry="40.54"/><path class="cls-21" d="M259.8,794.64H118.49a40.54,40.54,0,0,0-36.11,22.26,40.13,40.13,0,0,1,12.47-2H236.16a40.54,40.54,0,0,1,40.54,40.54V972.91a40.13,40.13,0,0,1-4.43,18.28,40.54,40.54,0,0,0,28.07-38.55V835.18a40.54,40.54,0,0,0-40.54-40.54Z"/><path class="cls-22" d="M117.92,990.58H259.2a40.54,40.54,0,0,0,36.11-22.33,40.13,40.13,0,0,1-12.47,2H141.57A40.54,40.54,0,0,1,101,929.7V812.31A40.13,40.13,0,0,1,105.46,794a40.54,40.54,0,0,0-28.07,38.55V950A40.54,40.54,0,0,0,117.92,990.58Z"/><circle class="cls-23" cx="111.16" cy="828.43" r="3.38"/><circle class="cls-23" cx="125.79" cy="828.43" r="3.38"/><circle class="cls-23" cx="140.42" cy="828.43" r="3.38"/><circle class="cls-23" cx="155.08" cy="828.43" r="3.38"/><circle class="cls-23" cx="169.71" cy="828.43" r="3.38"/><circle class="cls-23" cx="184.34" cy="828.43" r="3.38"/><circle class="cls-23" cx="199" cy="828.43" r="3.38"/><circle class="cls-23" cx="213.62" cy="828.43" r="3.38"/><circle class="cls-23" cx="228.25" cy="828.43" r="3.38"/><circle class="cls-23" cx="242.91" cy="828.43" r="3.38"/><circle class="cls-23" cx="111.16" cy="841.94" r="3.38"/><circle class="cls-23" cx="125.79" cy="841.94" r="3.38"/><circle class="cls-23" cx="140.42" cy="841.94" r="3.38"/><circle class="cls-23" cx="155.08" cy="841.94" r="3.38"/><circle class="cls-23" cx="169.71" cy="841.94" r="3.38"/><circle class="cls-23" cx="184.34" cy="841.94" r="3.38"/><circle class="cls-23" cx="199" cy="841.94" r="3.38"/><circle class="cls-23" cx="213.62" cy="841.94" r="3.38"/><circle class="cls-23" cx="228.25" cy="841.94" r="3.38"/><circle class="cls-23" cx="242.91" cy="841.94" r="3.38"/><circle class="cls-23" cx="111.16" cy="855.45" r="3.38"/><circle class="cls-23" cx="125.79" cy="855.45" r="3.38"/><circle class="cls-23" cx="140.42" cy="855.45" r="3.38"/><circle class="cls-23" cx="155.08" cy="855.45" r="3.38"/><circle class="cls-23" cx="169.71" cy="855.45" r="3.38"/><circle class="cls-23" cx="184.34" cy="855.45" r="3.38"/><circle class="cls-23" cx="199" cy="855.45" r="3.38"/><circle class="cls-23" cx="213.62" cy="855.45" r="3.38"/><circle class="cls-23" cx="228.25" cy="855.45" r="3.38"/><circle class="cls-23" cx="242.91" cy="855.45" r="3.38"/><circle class="cls-23" cx="111.16" cy="868.96" r="3.38"/><circle class="cls-23" cx="125.79" cy="868.96" r="3.38"/><circle class="cls-23" cx="140.42" cy="868.96" r="3.38"/><circle class="cls-23" cx="155.08" cy="868.96" r="3.38"/><circle class="cls-23" cx="169.71" cy="868.96" r="3.38"/><circle class="cls-23" cx="184.34" cy="868.96" r="3.38"/><circle class="cls-23" cx="199" cy="868.96" r="3.38"/><circle class="cls-23" cx="213.62" cy="868.96" r="3.38"/><circle class="cls-23" cx="228.25" cy="868.96" r="3.38"/><circle class="cls-23" cx="242.91" cy="868.96" r="3.38"/><circle class="cls-23" cx="111.16" cy="882.48" r="3.38"/><circle class="cls-23" cx="125.79" cy="882.48" r="3.38"/><circle class="cls-23" cx="140.42" cy="882.48" r="3.38"/><circle class="cls-23" cx="155.08" cy="882.48" r="3.38"/><circle class="cls-23" cx="169.71" cy="882.48" r="3.38"/><circle class="cls-23" cx="184.34" cy="882.48" r="3.38"/><circle class="cls-23" cx="199" cy="882.48" r="3.38"/><circle class="cls-23" cx="213.62" cy="882.48" r="3.38"/><circle class="cls-23" cx="228.25" cy="882.48" r="3.38"/><circle class="cls-23" cx="242.91" cy="882.48" r="3.38"/><circle class="cls-23" cx="111.16" cy="909.5" r="3.38"/><circle class="cls-23" cx="125.79" cy="909.5" r="3.38"/><circle class="cls-23" cx="140.42" cy="909.5" r="3.38"/><circle class="cls-23" cx="155.08" cy="909.5" r="3.38"/><circle class="cls-23" cx="169.71" cy="909.5" r="3.38"/><circle class="cls-23" cx="184.34" cy="909.5" r="3.38"/><circle class="cls-23" cx="199" cy="909.5" r="3.38"/><circle class="cls-23" cx="213.62" cy="909.5" r="3.38"/><circle class="cls-23" cx="228.25" cy="909.5" r="3.38"/><circle class="cls-23" cx="242.91" cy="909.5" r="3.38"/><circle class="cls-23" cx="111.16" cy="923.02" r="3.38"/><circle class="cls-23" cx="125.79" cy="923.02" r="3.38"/><circle class="cls-23" cx="140.42" cy="923.02" r="3.38"/><circle class="cls-23" cx="155.08" cy="923.02" r="3.38"/><circle class="cls-23" cx="169.71" cy="923.02" r="3.38"/><circle class="cls-23" cx="184.34" cy="923.02" r="3.38"/><circle class="cls-23" cx="199" cy="923.02" r="3.38"/><circle class="cls-23" cx="213.62" cy="923.02" r="3.38"/><circle class="cls-23" cx="228.25" cy="923.02" r="3.38"/><circle class="cls-23" cx="242.91" cy="923.02" r="3.38"/><circle class="cls-23" cx="111.16" cy="936.53" r="3.38"/><circle class="cls-23" cx="125.79" cy="936.53" r="3.38"/><circle class="cls-23" cx="140.42" cy="936.53" r="3.38"/><circle class="cls-23" cx="155.08" cy="936.53" r="3.38"/><circle class="cls-23" cx="169.71" cy="936.53" r="3.38"/><circle class="cls-23" cx="184.34" cy="936.53" r="3.38"/><circle class="cls-23" cx="199" cy="936.53" r="3.38"/><circle class="cls-23" cx="213.62" cy="936.53" r="3.38"/><circle class="cls-23" cx="228.25" cy="936.53" r="3.38"/><circle class="cls-23" cx="242.91" cy="936.53" r="3.38"/><circle class="cls-23" cx="111.16" cy="950.04" r="3.38"/><circle class="cls-23" cx="125.79" cy="950.04" r="3.38"/><circle class="cls-23" cx="140.42" cy="950.04" r="3.38"/><circle class="cls-23" cx="155.08" cy="950.04" r="3.38"/><circle class="cls-23" cx="169.71" cy="950.04" r="3.38"/><circle class="cls-23" cx="184.34" cy="950.04" r="3.38"/><circle class="cls-23" cx="199" cy="950.04" r="3.38"/><circle class="cls-23" cx="213.62" cy="950.04" r="3.38"/><circle class="cls-23" cx="228.25" cy="950.04" r="3.38"/><circle class="cls-23" cx="242.91" cy="950.04" r="3.38"/><circle class="cls-23" cx="111.16" cy="895.99" r="3.38"/><circle class="cls-23" cx="125.79" cy="895.99" r="3.38"/><circle class="cls-23" cx="140.42" cy="895.99" r="3.38"/><circle class="cls-23" cx="155.08" cy="895.99" r="3.38"/><circle class="cls-23" cx="169.71" cy="895.99" r="3.38"/><circle class="cls-23" cx="184.34" cy="895.99" r="3.38"/><circle class="cls-23" cx="199" cy="895.99" r="3.38"/><circle class="cls-23" cx="213.62" cy="895.99" r="3.38"/><circle class="cls-23" cx="228.25" cy="895.99" r="3.38"/><circle class="cls-23" cx="242.91" cy="895.99" r="3.38"/><text class="cls-24" transform="translate(1657.23 207.85) scale(1.57 1)">X</text><path class="cls-3" d="M1921.41,997.39H1803.55a8.17,8.17,0,0,1-8.16-8.16V870.52a37.9,37.9,0,0,1,37.85-37.85h58.48a37.9,37.9,0,0,1,37.85,37.85V989.23A8.17,8.17,0,0,1,1921.41,997.39Zm-114-12h110.19V870.52a25.88,25.88,0,0,0-25.85-25.85h-58.48a25.88,25.88,0,0,0-25.85,25.85Z"/><path class="cls-3" d="M1841.2,813.54l-1.28-3.14-1,1.85c7.32-2.78,15.27-8.49,17.54-16.4,2-6.92-.21-14.75-6.89-18.07-4.24-2.11-8.72-3.05-12.35-6.32a21.19,21.19,0,0,1-6.86-13.54c-1.15-11.61,7.59-21.61,19-22.94l-1.5-1.5.3,3.38,1.5-1.5c-15.94,1.92-24.91,20.42-14.36,33.48,6.47,8,19.69,7,22,18.49,2.39,11.77-7.8,21.36-17.9,25.17-1.79.67-1,3.58.8,2.89,13.43-5.06,27.47-21.24,17-35.6-2.18-3-5.29-4.79-8.69-6.16-6-2.4-11-4.86-13.55-11.17-4.46-11,3.13-22.73,14.64-24.12.75-.09,1.58-.62,1.5-1.5l-.3-3.38c-.07-.73-.64-1.6-1.5-1.5-16.51,1.93-27.15,19.31-19.49,34.65a23.85,23.85,0,0,0,7.09,8.44c3.9,2.91,8.93,3.48,12.78,6.28,5,3.66,5.62,11.09,2.73,16.33-3,5.51-8.55,9.48-14.32,11.68a1.52,1.52,0,0,0-1,1.85l1.28,3.14C1839,816.1,1841.93,815.33,1841.2,813.54Z"/><path class="cls-3" d="M1885.38,768.58c-10-3.82-20.22-13.43-17.82-25.12,2.35-11.46,15.4-10.53,21.93-18.39,10.78-13,1.75-31.66-14.23-33.63l1.5,1.5.3-3.38-1.5,1.5c10.82,1.25,19.36,10.34,19,21.43a21.2,21.2,0,0,1-6.75,14.87c-3.87,3.59-8.78,4.36-13.23,6.83-6.15,3.4-8.17,10.77-6.38,17.33,2.21,8.11,10.21,14,17.69,16.82l-.9-2.2-1.35,3.14c-.75,1.75,1.83,3.28,2.59,1.51l1.35-3.14a1.54,1.54,0,0,0-.9-2.2c-9.17-3.49-23.19-17-13-27,3.48-3.4,9.19-3.9,13.22-6.62a24.16,24.16,0,0,0,8.14-9.24c7.62-15.35-3.11-32.65-19.54-34.55-.86-.1-1.43.77-1.5,1.5l-.3,3.38c-.08.88.76,1.41,1.5,1.5,11.85,1.46,19.53,14,14.28,25-2.74,5.78-7.59,8-13.19,10.24-3.44,1.39-6.49,3.16-8.69,6.2-10.38,14.33,3.53,30.43,16.94,35.55C1886.39,772.16,1887.17,769.26,1885.38,768.58Z"/><rect class="cls-3" x="84.14" y="697.83" width="6.76" height="78.78" transform="translate(-169.93 40.89) rotate(-13.52)"/><rect class="cls-3" x="33.49" y="738.31" width="6.76" height="78.78" transform="translate(-678.01 469.29) rotate(-63.95)"/><rect class="cls-3" x="65.58" y="744.86" width="6.76" height="45.44" transform="translate(-495.81 243.2) rotate(-41.99)"/><path class="cls-25" d="M1317.45,642.63H851.9c-44.56,0-90.84,41.15-90.84,83.61v34.49c0-42.43,46.28-76.85,90.84-76.85h465.55c44.56,0,87.46,34.39,87.46,76.85V726.24C1405,683.77,1362.11,642.63,1317.45,642.63Z"/><path class="cls-3" d="M1103.74,540.19a25.18,25.18,0,0,1-19.51-8.57,53.55,53.55,0,0,1-4.91-7.29c-2.3-3.87-4.29-7.21-7-8-3.61-1.07-6.86,2-12.93,8.78-5.93,6.62-12.66,14.11-22.7,13.83-14.4-.5-19.11-14.93-22.89-26.53-2.29-7-4.18-12.34-6.64-15.33l-2.5,20.29-8.1-5.43a192.47,192.47,0,0,1-77.7-106.28A25.05,25.05,0,0,1,916,408l-4.25,3-3.58-3.79c-27-28.62-45.48-65.2-53.3-105.78-7.24-37.58-4.76-75.35,7.14-109.8h-.42l1.8-7.42c11.37-46.73,30.73-85.6,57.55-115.51,26.47-29.52,60.11-50.28,100-61.7,19.85-5.67,41.71-7.76,70.9-6.78,62.74,2.16,114.29,17.31,153.21,45s60.39,61.67,69,109.78l.53,0,.88,5.33c5.9,35.82,5.53,73.62-1.13,115.54-5.34,33.63-14.92,70.36-29.28,112.3h0c-16.4,47.94-39.31,100.73-85,128.81a96.5,96.5,0,0,1-37.87,13.83c-12.07,1.55-23.51.18-33.46-4a28.08,28.08,0,0,1-17.63,12.45A31.17,31.17,0,0,1,1103.74,540.19Zm-32.94-36.13a17.27,17.27,0,0,1,4.92.74c7.23,2.14,10.94,8.38,13.92,13.39a44.12,44.12,0,0,0,3.77,5.69c3.81,4.51,10.2,4.89,14.9,3.74s10.25-4.48,11.54-10.3l1.77-8,7.07,4.05c20.78,11.91,47.27,4.37,65.15-6.65,42.41-26.09,64.18-76.56,79.89-122.48h0c20.44-59.7,42.21-137.91,30.75-216.67l-.5,0-.84-5.38c-7.44-47.51-27.5-80.59-65-107.24-37-26.33-86.32-40.74-146.66-42.82-27.88-.94-48.61,1-67.19,6.32-37.68,10.78-69.43,30.35-94.36,58.17-24.06,26.84-41.85,61.44-52.94,102.92h2.5l-3.25,8.21c-13.64,34.48-16.94,73-9.55,111.32,7,36.19,22.84,69,46,95.2a13.44,13.44,0,0,0,2-6.73l1.51-54.19,10.38,53.21a181.7,181.7,0,0,0,68.57,109.57l1.73-14.05,5.44.13c14.38.35,19.08,14.78,22.86,26.37,3.66,11.23,6.29,18.06,11.86,18.25h.17c4.39,0,8.68-4.78,13.21-9.84C1055.73,511.19,1062.11,504.07,1070.8,504.07Z"/><path class="cls-26" d="M1250.78,340.2c3.29-8,6.13-15.74,8.55-22.84,1.16-3.57,2.31-6.94,3.25-10.15.48-1.6,1-3.13,1.41-4.62l1.23-4.29c3.1-10.94,4.79-17.82,5.55-17.7s.2,7.24-2,18.54l-.92,4.43c-.33,1.54-.75,3.12-1.14,4.77-.77,3.3-1.79,6.78-2.84,10.44-2.21,7.3-5,15.23-8.32,23.37s-7.06,15.68-10.67,22.4c-1.85,3.33-3.59,6.51-5.38,9.39-.88,1.45-1.71,2.86-2.57,4.18l-2.48,3.78c-6.42,9.57-11.16,14.92-11.69,14.54s3.05-6.5,8.61-16.43l2.17-3.9c.75-1.35,1.48-2.8,2.28-4.26,1.61-2.93,3.18-6.13,4.89-9.47C1244,355.66,1247.45,348.18,1250.78,340.2Z"/><path class="cls-26" d="M1253.86,282.4c4.64-23.63,8.21-42.87,9.64-42.69s.05,19.85-4.63,43.67-10.83,42.56-12.16,42.19S1249.26,306,1253.86,282.4Z"/><path class="cls-26" d="M900.1,162.24c2.88-6.41,6-12.37,9-17.66,1.54-2.63,3-5.13,4.47-7.39s2.86-4.37,4.18-6.26c5.31-7.52,9.22-11.68,9.76-11.29,1.25.89-11.55,19.45-22.7,44.68-11.31,25.15-16.55,47.08-18,46.75-.65-.14-.17-5.83,1.87-14.8.51-2.24,1.11-4.69,1.86-7.29s1.58-5.37,2.51-8.27C894.88,174.93,897.25,168.67,900.1,162.24Z"/><path class="cls-26" d="M931.82,125.27a133.42,133.42,0,0,1,13.59-19.9c4-4.72,6.88-7.26,7.41-6.84,1.15.93-7.57,13.17-16.55,29.23s-15,29.82-16.38,29.33c-.64-.23,0-4,2-9.88A133.41,133.41,0,0,1,931.82,125.27Z"/><path class="cls-26" d="M976.48,406.76a117.07,117.07,0,0,0,12,9.76c2,1.32,3.84,2.63,5.69,3.69.91.54,1.77,1.12,2.64,1.59l2.49,1.37c1.57.93,3.07,1.61,4.35,2.29l1.8.95q.84.4,1.54.76c1.84.95,2.82,1.64,2.72,2s-1.29.29-3.37-.1l-1.73-.35c-.62-.15-1.29-.36-2-.58a47.4,47.4,0,0,1-4.82-1.67l-2.75-1.13c-1-.41-1.9-.91-2.91-1.4-2-.95-4.06-2.19-6.23-3.47a82.3,82.3,0,0,1-23.68-22.3c-1.41-2.08-2.77-4-3.83-6-.55-1-1.11-1.89-1.57-2.82l-1.3-2.68a47.44,47.44,0,0,1-2-4.71c-.26-.71-.51-1.35-.7-2s-.33-1.19-.46-1.7c-.51-2.06-.63-3.24-.3-3.36s1.08.82,2.13,2.6q.4.67.85,1.49l1.06,1.74c.76,1.24,1.53,2.7,2.55,4.21l1.52,2.41c.53.84,1.15,1.66,1.75,2.54,1.17,1.78,2.59,3.55,4,5.46A117.08,117.08,0,0,0,976.48,406.76Z"/><path class="cls-26" d="M1000.46,407.88a83.18,83.18,0,0,0,8.94,6.07c1.47.74,2.82,1.57,4.17,2.12l1.94.89,1.83.7c1.16.5,2.26.79,3.21,1.12l1.34.46,1.15.33c1.39.44,2.17.85,2.16,1.2s-.84.61-2.37.77l-1.28.1c-.46,0-1,0-1.51-.06a22.29,22.29,0,0,1-3.67-.45l-2.12-.44c-.72-.2-1.46-.44-2.23-.68a43.39,43.39,0,0,1-4.8-1.89,57.12,57.12,0,0,1-9.91-6.21A83.05,83.05,0,0,1,982.77,397c-3.19-4.23-4.78-7.13-4.26-7.58s3.11,1.61,6.93,5.15S994.37,403.12,1000.46,407.88Z"/><path class="cls-26" d="M1228.89,66.19a175.23,175.23,0,0,1,28.42,33.58c6.15,9.4,9.25,15.62,8.69,16s-4.8-5.12-11.63-13.87-16.46-20.67-28.9-31.89a148.24,148.24,0,0,0-18.68-14.3,125.08,125.08,0,0,0-16.9-9.14c-10-4.45-16.79-6-16.64-6.76.06-.33,1.83-.36,5,.08a70.59,70.59,0,0,1,13,3.32,99.67,99.67,0,0,1,18,8.5A126.21,126.21,0,0,1,1228.89,66.19Z"/><path class="cls-26" d="M1258.34,114.09a81.89,81.89,0,0,1,8.67,19.57c2,6.19,3.41,11.74,4.81,16.34,2.7,9.21,5.36,14.52,4.7,14.92-.28.17-1.37-.95-2.87-3.27a63,63,0,0,1-5.23-10.44c-1.87-4.54-3.71-10.07-5.86-16a91.28,91.28,0,0,0-8.52-18.35,79.25,79.25,0,0,0-6.21-8.37c-2.19-2.58-4.48-4.94-6.71-7.15-4.52-4.36-8.91-8-12.64-11.08-7.49-6.07-12.17-9.91-11.75-10.51s5.75,2.2,13.9,7.61a127.41,127.41,0,0,1,13.69,10.54,93.79,93.79,0,0,1,7.28,7.31A73.8,73.8,0,0,1,1258.34,114.09Z"/><path class="cls-3" d="M1435.87,998.64h-46.41l11.12-187.86,10,16a550.62,550.62,0,0,1,58.06,126.88,34.44,34.44,0,0,1-32.74,44.94Zm-33.68-12h33.67a22.44,22.44,0,0,0,21.31-29.32,538.87,538.87,0,0,0-46.88-107.53Z"/><path class="cls-3" d="M1965.61,1037.12H40V988H1965.61ZM52,1025.12H1953.61V1000H52Z"/><path class="cls-13" d="M1081.79,556.11h0c164.43,0,297.72,133.29,297.72,297.72h0v326.06H784.07v-326c0-164.43,133.23-297.75,297.65-297.79Z"/><path class="cls-27" d="M1405.52,786.74v540.92H754.3v-20.88c52.87,5.1,106.08,8.14,159.32,9.15,143.84,2.63,279.61-28.38,362.55-127.63,49.25-58.95,68-129.79,83.14-198.23C1373.66,925.31,1405.52,852.24,1405.52,786.74Z"/><path class="cls-3" d="M1389.51,1187.89H782.07v-332a303.72,303.72,0,0,1,303.65-303.79h.07a303.72,303.72,0,0,1,303.72,303.72Zm-595.44-12h583.44V855.83a291.72,291.72,0,0,0-291.72-291.72h-.07A291.72,291.72,0,0,0,794.07,855.9Z"/><path class="cls-28" d="M872.41,639.11h421.77A114.86,114.86,0,0,1,1409,754v565.95a7.77,7.77,0,0,1-7.77,7.77H765.45a7.77,7.77,0,0,1-7.77-7.77V753.84A114.86,114.86,0,0,1,872.41,639.11Z"/><path class="cls-29" d="M1406,760v70a114.86,114.86,0,0,0-114.85-114.86H869.41A114.86,114.86,0,0,0,754.69,829.84v-70A114.86,114.86,0,0,1,869.41,645.11h421.77A114.86,114.86,0,0,1,1406,760Z"/><path class="cls-3" d="M1397.26,1333.69H761.45a13.79,13.79,0,0,1-13.77-13.77V753.84c.08-66.49,54.23-120.65,120.72-120.72h421.77A121,121,0,0,1,1411,754v565.95A13.79,13.79,0,0,1,1397.26,1333.69ZM868.41,645.11A109,109,0,0,0,759.68,753.84v566.08a1.77,1.77,0,0,0,1.77,1.77h635.81a1.77,1.77,0,0,0,1.77-1.77V754a109,109,0,0,0-108.86-108.86H868.41Z"/><path class="cls-3" d="M255.09,1000.84H113.82A46.59,46.59,0,0,1,67.28,954.3V836.84a46.59,46.59,0,0,1,46.54-46.54H255.09a46.59,46.59,0,0,1,46.54,46.54V954.3A46.59,46.59,0,0,1,255.09,1000.84ZM113.82,802.3a34.58,34.58,0,0,0-34.54,34.54V954.3a34.58,34.58,0,0,0,34.54,34.54H255.09a34.58,34.58,0,0,0,34.54-34.54V836.84a34.58,34.58,0,0,0-34.54-34.54Z"/></g></g></svg>