<svg xmlns="http://www.w3.org/2000/svg" viewBox="0 0 630.89 392.2"><defs><style>.cls-1{fill:#00dba4;}.cls-11,.cls-2{fill:#3d3634;}.cls-3{fill:#977e71;}.cls-4{fill:#ebd9c7;}.cls-5{fill:#e2c4b2;}.cls-6{fill:#e1e6e9;}.cls-7{fill:#cbd2dc;}.cls-8{opacity:0.2;}.cls-9{fill:#fff;}.cls-10{fill:#ccd0da;}.cls-11{opacity:0.5;}.cls-12{fill:#8b7163;}.cls-13{fill:#f4e0cc;}.cls-14{fill:#fff8ef;}</style></defs><title>Asset 300</title><g id="Layer_2" data-name="Layer 2"><g id="Layer_1-2" data-name="Layer 1"><polygon class="cls-1" points="196 317.2 165 278.2 323 222.2 480 285.2 461.5 321.7 213 352.2 196 317.2"/><path class="cls-2" d="M213.12,353.82,195.72,318l-32.21-40.52L324,220.6l159,63.82-19.6,38.67-.79.1Zm-44.64-74.91,29.79,37.48,16.6,34.18,246.64-30.27L478.92,286,324,223.81Z"/><path class="cls-3" d="M255,83.2c0-2-9-28,15-48,0,0,13-12,10-34,0,0-1,26,57,26,0,0,45.83-7,45.83,57.5"/><path class="cls-4" d="M365,83.7H270.32c.7-5.39,4.15-25.47,17.26-28.79h0C298.11,60,317.48,64.33,350,56.2,350,56.2,369.87,64.08,365,83.7Z"/><path class="cls-5" d="M353.69,58.33c-.48.28-1,.55-1.46.81a76.57,76.57,0,0,1-61.47,4.37,6.79,6.79,0,0,0-3.8-.64c-2.08.49-3.1,2.77-4,4.73a45.15,45.15,0,0,1-11.51,15.68c1-6.68,4.82-24.47,17.09-27.58h0C299.11,60.77,318.48,65.12,351,57A23.54,23.54,0,0,1,353.69,58.33Z"/><rect class="cls-6" x="86.5" y="336.7" width="479.15" height="54"/><rect class="cls-7" x="87.35" y="337.7" width="479.15" height="12"/><path class="cls-2" d="M567.15,392.2H85v-57H567.15ZM88,389.2H564.15v-51H88Z"/><g class="cls-8"><rect class="cls-6" x="507.5" y="238.7" width="60.89" height="15.98"/><rect class="cls-7" x="507.61" y="239" width="60.89" height="3.55"/><path class="cls-2" d="M569.89,256.18H506v-19h63.89Zm-60.89-3h57.89v-13H509Z"/><rect class="cls-6" x="568.5" y="238.7" width="60.89" height="15.98"/><rect class="cls-7" x="568.61" y="239" width="60.89" height="3.55"/><path class="cls-2" d="M630.89,256.18H567v-19h63.89Zm-60.89-3h57.89v-13H570Z"/><rect class="cls-6" x="538.73" y="254.68" width="60.89" height="15.98"/><rect class="cls-7" x="538.83" y="254.97" width="60.89" height="3.55"/><path class="cls-2" d="M601.12,272.15H537.23v-19h63.89Zm-60.89-3h57.89v-13H540.23Z"/></g><g class="cls-8"><rect class="cls-6" x="26.5" y="35.7" width="60.89" height="15.98"/><rect class="cls-7" x="26.61" y="36" width="60.89" height="3.55"/><path class="cls-2" d="M88.89,53.18H25v-19H88.89ZM28,50.18H85.89v-13H28Z"/><rect class="cls-6" x="87.5" y="35.7" width="60.89" height="15.98"/><rect class="cls-7" x="87.61" y="36" width="60.89" height="3.55"/><path class="cls-2" d="M149.89,53.18H86v-19h63.89ZM89,50.18h57.89v-13H89Z"/><rect class="cls-6" x="57.73" y="51.68" width="60.89" height="15.98"/><rect class="cls-7" x="57.83" y="51.97" width="60.89" height="3.55"/><path class="cls-2" d="M120.12,69.15H56.23v-19h63.89Zm-60.89-3h57.89v-13H59.23Z"/></g><g class="cls-8"><rect class="cls-6" x="1.5" y="253.68" width="60.89" height="15.98"/><rect class="cls-7" x="1.61" y="265.81" width="60.89" height="3.55"/><path class="cls-2" d="M63.89,271.15H0v-19H63.89ZM3,268.15H60.89v-13H3Z"/><rect class="cls-6" x="62.5" y="253.68" width="60.89" height="15.98"/><rect class="cls-7" x="62.61" y="265.81" width="60.89" height="3.55"/><path class="cls-2" d="M124.89,271.15H61v-19h63.89Zm-60.89-3h57.89v-13H64Z"/><rect class="cls-6" x="32.73" y="237.7" width="60.89" height="15.98"/><rect class="cls-7" x="32.83" y="249.83" width="60.89" height="3.55"/><path class="cls-2" d="M95.12,255.18H31.23v-19H95.12Zm-60.89-3H92.12v-13H34.23Z"/></g><g class="cls-8"><rect class="cls-6" x="422.5" y="44.68" width="60.89" height="15.98"/><rect class="cls-7" x="422.61" y="56.81" width="60.89" height="3.55"/><path class="cls-2" d="M484.89,62.15H421v-19h63.89Zm-60.89-3h57.89v-13H424Z"/><rect class="cls-6" x="483.5" y="44.68" width="60.89" height="15.98"/><rect class="cls-7" x="483.61" y="56.81" width="60.89" height="3.55"/><path class="cls-2" d="M545.89,62.15H482v-19h63.89Zm-60.89-3h57.89v-13H485Z"/><rect class="cls-6" x="453.73" y="28.7" width="60.89" height="15.98"/><rect class="cls-7" x="453.83" y="40.83" width="60.89" height="3.55"/><path class="cls-2" d="M516.12,46.18H452.23v-19h63.89Zm-60.89-3h57.89v-13H455.23Z"/></g><circle class="cls-9" cx="479.5" cy="255.7" r="4.5"/><path class="cls-2" d="M479.5,261.7a6,6,0,1,1,6-6A6,6,0,0,1,479.5,261.7Zm0-9a3,3,0,1,0,3,3A3,3,0,0,0,479.5,252.7Z"/><rect class="cls-6" x="261.5" y="310.7" width="134" height="11"/><rect class="cls-9" x="260.5" y="310.7" width="134" height="4"/><path class="cls-2" d="M396.5,322.7h-137v-14h137Zm-134-3h131v-8h-131Z"/><rect class="cls-6" x="160.5" y="84.7" width="332" height="213" rx="12" ry="12"/><path class="cls-9" d="M480.5,84.7h-308a12,12,0,0,0-12,12v12a12,12,0,0,1,12-12h308a12,12,0,0,1,12,12v-12A12,12,0,0,0,480.5,84.7Z"/><path class="cls-2" d="M480.5,299.2h-308A13.52,13.52,0,0,1,159,285.7V96.7a13.52,13.52,0,0,1,13.5-13.5h308A13.52,13.52,0,0,1,494,96.7v189A13.52,13.52,0,0,1,480.5,299.2Zm-308-213A10.51,10.51,0,0,0,162,96.7v189a10.51,10.51,0,0,0,10.5,10.5h308A10.51,10.51,0,0,0,491,285.7V96.7a10.51,10.51,0,0,0-10.5-10.5Z"/><circle class="cls-2" cx="326.5" cy="169.7" r="23.5"/><rect class="cls-2" x="296" y="208.7" width="61" height="3"/><polygon class="cls-6" points="345 209.7 326 209.7 307 209.7 296 319.7 326 319.7 356 319.7 345 209.7"/><rect class="cls-9" x="308" y="210.7" width="38" height="9"/><polygon class="cls-10" points="357.5 319.7 297.5 319.7 298.5 312.7 356.5 312.7 357.5 319.7"/><path class="cls-2" d="M358.66,322.2H295.34l11.3-113h40.71Zm-60-3h56.68l-10.7-107H309.36Z"/><circle class="cls-9" cx="190.5" cy="280.7" r="2.5"/><path class="cls-2" d="M190.5,284.2a3.5,3.5,0,1,1,3.5-3.5A3.5,3.5,0,0,1,190.5,284.2Zm0-5a1.5,1.5,0,1,0,1.5,1.5A1.5,1.5,0,0,0,190.5,279.2Z"/><circle class="cls-9" cx="470" cy="281.2" r="5.5"/><path class="cls-2" d="M470,287.7a6.5,6.5,0,1,1,6.5-6.5A6.51,6.51,0,0,1,470,287.7Zm0-11a4.5,4.5,0,1,0,4.5,4.5A4.5,4.5,0,0,0,470,276.7Z"/><path class="cls-2" d="M326.75,255.7a9.5,9.5,0,1,1,9.5-9.5A9.51,9.51,0,0,1,326.75,255.7Zm0-17a7.5,7.5,0,1,0,7.5,7.5A7.51,7.51,0,0,0,326.75,238.7Z"/><circle class="cls-9" cx="326.75" cy="246.2" r="3.9" transform="translate(-78.39 303.16) rotate(-45)"/><path class="cls-2" d="M326.75,251.09a4.89,4.89,0,1,1,3.46-1.43h0A4.88,4.88,0,0,1,326.75,251.09Zm0-7.79a2.9,2.9,0,1,0,2,4.94h0a2.9,2.9,0,0,0-2-4.94Z"/><rect class="cls-9" x="199" y="274.7" width="4.5" height="10.17"/><path class="cls-2" d="M204.5,285.87H198V273.7h6.5Zm-4.5-2h2.5V275.7H200Z"/><rect class="cls-11" x="199.5" y="274.7" width="1" height="11"/><rect class="cls-9" x="207" y="274.7" width="4.5" height="10.17"/><path class="cls-2" d="M212.5,285.87H206V273.7h6.5Zm-4.5-2h2.5V275.7H208Z"/><rect class="cls-11" x="207.5" y="274.7" width="1" height="11"/><rect class="cls-9" x="215" y="274.7" width="4.5" height="10.17"/><path class="cls-2" d="M220.5,285.87H214V273.7h6.5Zm-4.5-2h2.5V275.7H216Z"/><rect class="cls-11" x="215.5" y="274.7" width="1" height="11"/><rect class="cls-6" x="43.5" y="320.7" width="565" height="18"/><rect class="cls-9" x="44.5" y="321.7" width="565" height="4"/><path class="cls-2" d="M270.66,85.16l-3-.25a63.53,63.53,0,0,1,3.25-14.42c3.57-10,9.21-15.93,16.3-17.26l.55,2.95C273.07,58.94,270.68,84.9,270.66,85.16Z"/><path class="cls-2" d="M365.93,84.82l-2.86-.89c2.51-8,1-15.06-4.4-20.85a29.5,29.5,0,0,0-8.8-6.3c-55.94,13.83-73.36-8.72-74.07-9.69l2.41-1.78L277,46.2l1.2-.9c.17.22,17.26,22,71.43,8.44l.47-.12.45.18C350.78,53.9,372.77,62.91,365.93,84.82Z"/><path class="cls-2" d="M272.42,62.73c-7.82,0-14.65-7-17.68-11.71l2.52-1.63c.1.15,9.72,14.75,20.19,9L278.89,61A13.28,13.28,0,0,1,272.42,62.73Z"/><path class="cls-2" d="M268.92,69.4c-7.6,0-14.25-6.84-17.18-11.38l2.52-1.63c.09.14,9.41,14.27,19.52,8.71l1.44,2.63A12.93,12.93,0,0,1,268.92,69.4Z"/><path class="cls-2" d="M266.44,77.9c-7,0-13-6.24-15.7-10.39l2.52-1.63c.08.13,8.46,12.83,17.52,7.86l1.44,2.63A11.86,11.86,0,0,1,266.44,77.9Z"/><path class="cls-12" d="M377.32,52.65c-9.89-5.9-20.44-10.31-31.79-10-9.32.24-18.24,3.68-27.49,4.86-16.66,2.13-34.06-3.79-46.32-15.21a40.44,40.44,0,0,0,8.69-27.35,22.38,22.38,0,0,0,5.12,7C292,18.87,306.2,26.2,337,26.2c0,0,17.25-2.63,30.58,10.23A45,45,0,0,1,377.32,52.65Z"/><path class="cls-2" d="M383.33,83.7h-3c0-22.25-5.47-38.25-16.25-47.53-12.38-10.66-27.7-8.51-27.85-8.48l-.22,0c-17.54,0-40.86-2.52-52.41-14.52a25.18,25.18,0,0,1-2.74-3.37C279.79,26.07,270.48,34.87,270,35.3,256.24,46.79,251.27,62,255.2,80.41a10,10,0,0,1,.3,1.79H254l-1.5,0c0-.15-.13-.71-.24-1.2-4.18-19.64,1.13-35.78,15.77-48h0a32,32,0,0,0,5.8-8.39,41.1,41.1,0,0,0,3.92-22A11.54,11.54,0,0,1,277.5.15l3-.15q.16,1.16.26,2.29a18.59,18.59,0,0,0,5.11,8.92c6,6.15,19.53,13.47,50,13.49,1.64-.22,17.11-2,30.11,9.16C377.5,43.74,383.33,60.51,383.33,83.7Z"/><path class="cls-13" d="M215,321a19.75,19.75,0,0,1,39.5,0"/><path class="cls-14" d="M234.75,308a19.74,19.74,0,0,1,19.09,14.75h.66a19.75,19.75,0,0,0-39.5,0h.66A19.74,19.74,0,0,1,234.75,308Z"/><path class="cls-14" d="M425.75,307a19.74,19.74,0,0,1,19.09,14.75h.66a19.75,19.75,0,0,0-39.5,0h.66A19.74,19.74,0,0,1,425.75,307Z"/><path class="cls-13" d="M404,322a19.75,19.75,0,0,1,39.5,0"/><path class="cls-2" d="M256,321h-3a18.25,18.25,0,0,0-36.5,0h-3a21.25,21.25,0,0,1,42.5,0Z"/><path class="cls-14" d="M424.75,306a19.74,19.74,0,0,1,19.09,14.75h.66a19.75,19.75,0,0,0-39.5,0h.66A19.74,19.74,0,0,1,424.75,306Z"/><path class="cls-2" d="M445,320h-3a18.25,18.25,0,0,0-36.5,0h-3a21.25,21.25,0,0,1,42.5,0Z"/><path class="cls-2" d="M610,340.2H42v-21H610Zm-565-3H607v-15H45Z"/><rect class="cls-2" x="326" y="254.7" width="1" height="66"/><path class="cls-2" d="M341,371.2a14.52,14.52,0,0,1-14.5-14.5v-18h1v18a13.5,13.5,0,1,0,27,0V338.2h1v18.5A14.52,14.52,0,0,1,341,371.2Z"/></g></g></svg>