<?xml version="1.0" encoding="utf-8"?>
<!-- Generator: Adobe Illustrator 23.0.0, SVG Export Plug-In . SVG Version: 6.00 Build 0)  -->
<svg version="1.1" id="Layer_1" xmlns="http://www.w3.org/2000/svg" xmlns:xlink="http://www.w3.org/1999/xlink" x="0px" y="0px"
	 viewBox="0 0 200 200" style="enable-background:new 0 0 200 200;" xml:space="preserve">
<style type="text/css">
	.st0{fill:#429CD6;}
	.st1{fill:#FFFFFF;}
	.st2{fill:none;}
</style>
<g>
	<circle class="st0" cx="100" cy="100" r="100"/>
	<g>
		<path class="st1" d="M76.8,150.8c47.2,0,73-39.1,73-73c0-1.1,0-2.2-0.1-3.3c5-3.6,9.4-8.1,12.8-13.3c-4.6,2-9.5,3.4-14.7,4
			c5.3-3.2,9.4-8.2,11.3-14.2c-5,2.9-10.4,5.1-16.3,6.2c-4.7-5-11.3-8.1-18.7-8.1c-14.2,0-25.6,11.5-25.6,25.6c0,2,0.2,4,0.7,5.8
			c-21.3-1.1-40.2-11.3-52.9-26.8c-2.2,3.8-3.5,8.2-3.5,12.9c0,8.9,4.5,16.8,11.4,21.3c-4.2-0.1-8.2-1.3-11.6-3.2c0,0.1,0,0.2,0,0.3
			c0,12.4,8.8,22.8,20.6,25.1c-2.2,0.6-4.4,0.9-6.8,0.9c-1.7,0-3.3-0.2-4.8-0.5c3.3,10.2,12.7,17.6,24,17.8
			c-8.8,6.9-19.8,11-31.9,11c-2.1,0-4.1-0.1-6.1-0.4C48.9,146.5,62.3,150.8,76.8,150.8"/>
		<rect class="st2" width="200" height="200"/>
	</g>
</g>
</svg>
