<svg xmlns="http://www.w3.org/2000/svg" viewBox="0 0 811.36 467.1"><defs><style>.cls-1{fill:#ffda8f;}.cls-2{fill:#ffe6c0;}.cls-14,.cls-3{fill:#ffb130;}.cls-4{fill:#121f53;}.cls-5{fill:#ff5f6e;}.cls-6{fill:#ffa47f;}.cls-7{fill:#ff4150;}.cls-8{fill:#d6ecf3;}.cls-9{fill:#adf5ff;}.cls-10{fill:#fff;}.cls-11{fill:#71e1f9;}.cls-12{fill:#e6cba0;}.cls-13{fill:#d5b584;}.cls-14,.cls-20{opacity:0.4;}.cls-15{fill:#29dcf0;}.cls-16{fill:#33c1dc;}.cls-17{fill:#ffc52d;}.cls-18{opacity:0.5;}.cls-19{fill:#c43345;}.cls-21{fill:#5ccf84;}.cls-22{fill:#49a067;}.cls-23{fill:#44e5e9;}.cls-24{fill:#38b6b9;}.cls-25{fill:#a5f3f5;}</style></defs><title>Asset 410</title><g id="Layer_2" data-name="Layer 2"><g id="Layer_1-2" data-name="Layer 1"><polygon class="cls-1" points="784.05 232.46 715.07 232.46 720.34 222.63 778.98 222.63 784.05 232.46"/><polygon class="cls-2" points="719.12 224.15 716.29 233.97 724.79 233.97 724.79 224.15 719.12 224.15"/><polygon class="cls-3" points="763.61 222.93 763.61 232.76 782.4 232.76 779.56 222.93 763.61 222.93"/><path class="cls-4" d="M784,230.52h-69l1.67,2.91,6.08-9.82-1.67,1H778l-1.67-1,6.08,9.82c1.31,2.11,4.65.17,3.34-2l-4.7-7.59c-.54-.87-1.15-2.39-2.07-2.93a3,3,0,0,0-1.63-.26H722.64c-.48,0-1,0-1.44,0-1.42.08-1.92,1.28-2.58,2.33l-5.23,8.45a2,2,0,0,0,1.67,2.91h69C786.53,234.39,786.54,230.52,784,230.52Z"/><polygon class="cls-5" points="785.56 240.79 770.38 331.38 769.48 336.71 728.89 336.71 727.97 331.19 712.78 240.6 770.38 240.42 770.38 240.74 785.56 240.79"/><polygon class="cls-6" points="771.15 240.74 771.15 240.42 761.87 240.45 761.87 240.74 777.05 240.79 761.87 331.38 760.97 336.71 770.25 336.71 771.15 331.38 786.33 240.79 771.15 240.74"/><polygon class="cls-7" points="723.35 240.86 770.89 240.71 770.89 240.68 713.3 240.86 728.48 331.45 729.41 336.97 739.47 336.97 738.54 331.45 723.35 240.86"/><polygon class="cls-8" points="404.67 289.01 473.13 305.85 440.67 259.67 404.67 289.01"/><path class="cls-4" d="M412.34,262.27a94.14,94.14,0,0,1-3.87,12.8q-.52,1.41-1.07,2.8-.3.75-.61,1.5c-.08.2-.26.61-.07.17l-.4.93q-1.38,3.18-3,6.25c-1.12,2.16-2.34,4.27-3.65,6.32q-1,1.54-2,3-.52.72-1.05,1.43l-.31.4s.23-.29,0,0l-.71.89a52,52,0,0,1-5,5.36q-.7.64-1.42,1.25l-.68.56c-.11.09-.82.64-.44.36q-1.5,1.15-3.11,2.14a35.27,35.27,0,0,1-3.21,1.76,20.82,20.82,0,0,1-3,1.23,32,32,0,0,1-3.76,1,20.47,20.47,0,0,1-3.4.5c-3.58.28-7.17.13-10.75.52A50.83,50.83,0,0,0,351,315.4a27.61,27.61,0,0,0-12,7.08c-3.28,3.52-5.57,8.52-5.26,13.42,0,.07,0,.15,0,.22a2.79,2.79,0,0,0,2.71,2.71,2.72,2.72,0,0,0,2.71-2.71,7.49,7.49,0,0,1,0-.88c0-.33,0-.66,0-1s.05-.39.06-.59-.14.82,0,.26c0-.13,0-.26.06-.39a21,21,0,0,1,.93-3.24c.12-.34-.3.63,0,0l.18-.38q.25-.52.54-1t.56-.9l.31-.45c.08-.11.49-.65.22-.31s.14-.16.21-.24l.39-.45q.45-.5.93-1t1-.88c.11-.09.78-.62.22-.19l.66-.48a24,24,0,0,1,2.73-1.65c.5-.26,1-.5,1.52-.73l.26-.11.15-.06,1-.38a42.17,42.17,0,0,1,8.68-2.09c3.59-.49,7.24-.41,10.87-.59,10.76-.54,20.22-6.09,27.28-14,6.53-7.34,11.18-16.12,14.79-25.2a93.2,93.2,0,0,0,4.85-15.26l.05-.24a2.77,2.77,0,0,0-1.89-3.33,2.73,2.73,0,0,0-3.33,1.89Z"/><path class="cls-4" d="M452.88,264.83a94,94,0,0,0,3.84,12.71,91.76,91.76,0,0,0,13.5,25.17c6.3,8,15,14.68,25.26,16.36a85.08,85.08,0,0,0,9.9.61,52.6,52.6,0,0,1,9.88,1.31,38,38,0,0,1,4.15,1.23l.87.33a2.46,2.46,0,0,1,.41.17c.55.25,1.1.51,1.64.79a24,24,0,0,1,2.73,1.65l.66.48c-.42-.32-.05,0,.15.13.36.31.71.61,1.05.94s.59.59.87.9l.4.45c.09.11.52.65.26.31s.12.16.18.25l.31.45q.34.5.64,1t.47.89l.21.44c.28.58-.14-.41,0,0,.2.57.42,1.12.58,1.71a16,16,0,0,1,.36,1.59c.08.45,0,.81,0,0a5.81,5.81,0,0,0,.06.63c0,.55,0,1.1,0,1.65a2,2,0,0,1,0,.22A2.72,2.72,0,0,0,534,340a2.77,2.77,0,0,0,2.71-2.71c.44-3.86-1.18-8.27-3.39-11.35-6.6-9.21-19-11.41-29.58-11.69-1.61,0-3.22,0-4.82-.13l-1-.09-.54-.06c.06,0,.37.05.05,0q-1-.15-2-.35a32,32,0,0,1-3.76-1c-.57-.19-1.12-.41-1.68-.63a2.5,2.5,0,0,1-.41-.18l-1-.48a36.56,36.56,0,0,1-6.2-3.85c.38.29-.36-.29-.44-.36l-.58-.48q-.77-.65-1.52-1.34-1.35-1.24-2.6-2.59t-2.5-2.87l-.56-.69c-.27-.34.08.12-.28-.36s-.76-1-1.13-1.53c-1.43-2-2.76-4.09-4-6.23s-2.28-4.18-3.3-6.33q-.74-1.56-1.43-3.15l-.31-.72.06.14-.17-.41q-.31-.75-.61-1.5a143.39,143.39,0,0,1-4.89-15.36c0-.08,0-.16-.05-.24a2.71,2.71,0,0,0-5.22,1.44Z"/><path class="cls-4" d="M367.75,318.21h55.9c3,0,3-4.64,0-4.64h-55.9c-3,0-3,4.64,0,4.64Z"/><path class="cls-4" d="M436.2,318.73H451c3,0,3-4.64,0-4.64H436.2c-3,0-3,4.64,0,4.64Z"/><rect class="cls-9" x="214.72" y="2.89" width="444.37" height="281.67" rx="33.87" ry="33.87"/><path class="cls-10" d="M656.66,250.22v15.6c.49,16-15.29,16.69-34,16.69H246.26c-18.68,0-30.5.48-34-16.69v-15.6Z"/><path class="cls-11" d="M655.72,36.86V250.59c3,26.7-12.51,31-28.73,33.56L211.35,94.79V36.86a34.07,34.07,0,0,1,34-34H621.75C640.43,2.89,660.24,5.81,655.72,36.86Z"/><path class="cls-8" d="M809.36,338.62A18.63,18.63,0,0,1,792,350.51H21.94A18.63,18.63,0,0,1,4.63,338.62a3.09,3.09,0,0,0-1.25,2.48h0a18.62,18.62,0,0,0,18.56,18.56H792a18.62,18.62,0,0,0,18.56-18.56h0A3.09,3.09,0,0,0,809.36,338.62Z"/><path class="cls-4" d="M790.69,357.6H24.28c-7.48,0-14.72-1.66-18.55-9.19-1.32-2.6-3.41-8,.36-8.6a23.41,23.41,0,0,1,3.62,0H803.62a8.65,8.65,0,0,1,2.33,0c2.06.7,1.33,3.34.91,5a16.92,16.92,0,0,1-16.17,12.75c-2.48.08-2.49,3.94,0,3.87a20.94,20.94,0,0,0,15.88-7.6c2.84-3.48,6.16-10.27,4.19-14.85-1-2.39-3.21-3-5.5-3.08-3.28-.11-6.58,0-9.86,0H9.43c-3.57,0-8.13-.63-9.19,4-1.17,5.14,2.08,11.48,5.5,15.1a21,21,0,0,0,14.85,6.4c.53,0,1.07,0,1.6,0,11.21,0,22.43,0,33.64,0H790.69C793.18,361.47,793.19,357.6,790.69,357.6Z"/><polyline class="cls-12" points="50.82 394.85 50.82 462.14 74.86 461.37 74.86 394.08"/><polygon class="cls-13" points="53.14 402.59 76.41 401.84 76.41 394.85 52.37 395.63 52.37 462.92 53.14 462.89 53.14 402.59"/><path class="cls-8" d="M35.32,361.58l2,7.73H73.2a9.59,9.59,0,0,1,8.58,13.87L75.63,395.5H81L98,361.58Z"/><path class="cls-4" d="M34.23,361.32,41.76,391l1.07,4.22a2,2,0,0,0,1.86,1.42H81.82a1.92,1.92,0,0,0,1.67-1L98.29,366l2.13-4.26c1.11-2.22-2.23-4.18-3.34-2l-14.8,29.65-2.13,4.26,1.67-1H44.7l1.86,1.42L39,364.52,38,360.3c-.61-2.41-4.34-1.39-3.73,1Z"/><path class="cls-4" d="M49.35,396.38l-.27,22.75-.42,36.24-.1,8.29c0,2.49,3.84,2.54,3.87,0L52.69,441l.42-36.24.1-8.29c0-2.49-3.84-2.54-3.87,0Z"/><path class="cls-4" d="M72.93,395.63v67.29c0,2.49,3.87,2.49,3.87,0V395.63c0-2.49-3.87-2.49-3.87,0Z"/><polyline class="cls-12" points="762.34 396.4 762.34 463.69 738.3 462.92 738.3 395.63"/><polygon class="cls-13" points="760.02 404.13 736.75 403.39 736.75 396.4 760.79 397.17 760.79 464.46 760.02 464.44 760.02 404.13"/><path class="cls-8" d="M777.84,361.84l-2,7.73H740a9.59,9.59,0,0,0-8.58,13.87l6.15,12.31h-5.42l-16.93-33.91Z"/><path class="cls-4" d="M775.2,361.84l-7.53,29.69-1.07,4.22,1.86-1.42H731.34l1.67,1-14.8-29.65-2.13-4.26c-1.11-2.23-4.45-.27-3.34,2L727.54,393l2.13,4.26a1.92,1.92,0,0,0,1.67,1h37.13a2,2,0,0,0,1.86-1.42l7.53-29.69,1.07-4.22c.61-2.41-3.12-3.44-3.73-1Z"/><path class="cls-4" d="M760.41,397.95v67.29c0,2.49,3.87,2.49,3.87,0V397.95c0-2.49-3.87-2.49-3.87,0Z"/><path class="cls-4" d="M736.36,397.17v67.29c0,2.49,3.87,2.49,3.87,0V397.17c0-2.49-3.87-2.49-3.87,0Z"/><path class="cls-4" d="M784.08,240.28l-1.68,10-4,23.73-4.63,27.63-3.69,22L768.37,334,768,336.2l1.86-1.42H729.28l1.86,1.42-1.8-10.74-3.45-20.6-4.62-27.57-4.15-24.77-1.39-8.3c-.22-1.29-.32-2.68-.66-3.95,0-.06,0-.12,0-.18l-1.86,2.45,19.44-.06,31-.1,7.15,0-1.93-1.93v.32a2,2,0,0,0,1.93,1.93l15.18,0c2.49,0,2.49-3.86,0-3.87l-15.18,0,1.93,1.93v-.32a2,2,0,0,0-1.93-1.93l-19.44.06-31,.1-7.15,0a2,2,0,0,0-1.86,2.45L713,251.2l4,23.64,4.65,27.75,3.7,22.07,1.75,10.43.36,2.14a1.94,1.94,0,0,0,1.86,1.42h40.59a2,2,0,0,0,1.86-1.42l1.78-10.62L777,305.85l4.6-27.46,4.13-24.65c.68-4.08,1.41-8.16,2.05-12.25l0-.18C788.22,238.87,784.49,237.82,784.08,240.28Z"/><rect class="cls-1" x="705.67" y="232.69" width="87.79" height="12.5"/><rect class="cls-2" x="707.21" y="234.62" width="10.83" height="12.5"/><rect class="cls-3" x="767.45" y="233.07" width="23.91" height="12.5"/><path class="cls-4" d="M793.45,243.26H705.67l1.93,1.93v-12.5l-1.93,1.93h87.79l-1.93-1.93v12.5c0,2.49,3.87,2.49,3.87,0v-12.5a2,2,0,0,0-1.93-1.93H705.67a2,2,0,0,0-1.93,1.93v12.5a2,2,0,0,0,1.93,1.93h87.79C795.94,247.12,795.94,243.26,793.45,243.26Z"/><polygon class="cls-1" points="713.61 270.84 719.28 304.36 780.12 304.36 786.83 266.72 713.09 266.72 713.61 270.84"/><polygon class="cls-14" points="768.78 267.23 762.08 304.87 779.09 304.87 785.79 267.23 768.78 267.23"/><polygon class="cls-2" points="721.86 267.49 715.15 267.49 715.67 271.62 721.34 305.13 728.04 305.13 722.37 271.62 721.86 267.49"/><path class="cls-4" d="M711.74,271.49l5,29.29.72,4.23a1.94,1.94,0,0,0,1.86,1.42h60.85A2,2,0,0,0,782,305l5.87-33,.83-4.65a2,2,0,0,0-1.86-2.45H713.09a1.94,1.94,0,0,0-1.93,1.93l.52,4.13a2,2,0,0,0,1.93,1.93,2,2,0,0,0,1.93-1.93l-.52-4.13-1.93,1.93h73.74L785,266.33l-5.87,33-.83,4.65,1.86-1.42H719.28l1.86,1.42-5-29.29-.72-4.23C715.06,268,711.33,269,711.74,271.49Z"/><path class="cls-8" d="M554.06,250.73h86.65a44,44,0,0,0,8.68,24.62h-1.47a14.4,14.4,0,0,0-12.58,7.45c-3.28.18-6.78.21-10.4.22Z"/><path class="cls-4" d="M634,281.67H247.71c-3.61,0-7.22,0-10.83,0-12.1,0-21.12-9.63-21.13-21.57q0-9,0-18V37.7c0-4.44-.28-9,.07-13.42.85-10.6,10.16-18.74,20.64-18.86H633.63a21.16,21.16,0,0,1,16.17,7.36c5.3,6.16,4.9,13.42,4.9,20.86V258.28c0,1.51.05,3-.07,4.54-.87,10.62-10.15,18.72-20.63,18.86-3.48,0-3.49,5.46,0,5.41a26.53,26.53,0,0,0,25-18.53,32,32,0,0,0,1.13-9.59V33.64c0-7.86.21-15.44-4.63-22.31A26.6,26.6,0,0,0,633.87,0H238.29c-1,0-2.06,0-3.08,0a26.47,26.47,0,0,0-24.07,19.65c-1.35,5.33-.81,11.35-.81,16.8V242q0,9.08,0,18.16c0,14.71,11.37,26.81,26.28,27,3.26,0,6.52,0,9.77,0H634C637.47,287.09,637.48,281.67,634,281.67Z"/><circle class="cls-1" cx="437.74" cy="23.08" r="6.19"/><path class="cls-4" d="M441.87,23.21A4.25,4.25,0,1,1,437.61,19a4.3,4.3,0,0,1,4.25,4.25c.07,2.48,3.94,2.49,3.87,0a8.26,8.26,0,0,0-5.43-7.66,8.12,8.12,0,0,0-9.65,11.85,8.12,8.12,0,0,0,15.08-4.19C445.8,20.72,441.94,20.72,441.87,23.21Z"/><rect class="cls-15" x="60.2" y="92.52" width="146.1" height="13.4" transform="translate(-32.51 110.35) rotate(-40.51)"/><rect class="cls-16" x="57.51" y="93.51" width="146.1" height="5.11" transform="translate(-31.11 107.84) rotate(-40.51)"/><path class="cls-4" d="M83.69,149.62,75,139.44v2.73l11-9.43L112.6,110l32.07-27.4,27.72-23.69,9.14-7.81c1.42-1.22,3-2.36,4.34-3.71.06-.06.13-.11.19-.16h-2.73L192,57.45V54.71l-11,9.43L154.41,86.86l-32.07,27.4L94.62,137.94l-9.14,7.81c-1.44,1.23-3,2.4-4.34,3.71l-.19.16c-1.9,1.62.85,4.34,2.73,2.73l11-9.43,26.59-22.72,32.07-27.4L181.1,69.12l9.14-7.81c1.44-1.23,3-2.4,4.34-3.71l.19-.16a2,2,0,0,0,0-2.73l-8.7-10.18a2,2,0,0,0-2.73,0l-11,9.43L145.71,76.67l-32.07,27.4L85.92,127.76l-9.14,7.81c-1.44,1.23-3,2.4-4.34,3.71l-.19.16a2,2,0,0,0,0,2.73L81,152.36C82.57,154.25,85.3,151.51,83.69,149.62Z"/><rect class="cls-15" x="92.71" y="161.39" width="13.4" height="146.1" transform="translate(-73.14 47.16) rotate(-19.68)"/><polygon class="cls-16" points="122.5 303.76 95.36 314.41 68.5 167.91 73.31 166.19 122.5 303.76"/><path class="cls-4" d="M129.16,298.59,99,310.91l-4.31,1.76L97.09,314,94.37,299.4l-6.53-35.13-7.9-42.51L73.1,185l-2.25-12.12c-.35-1.89-.56-3.9-1.07-5.76,0-.08,0-.17,0-.25l-1.35,2.38L81,164.75l-2.38-1.35,4.89,13.66L95.28,210l14.2,39.72L121.76,284c2,5.56,3.9,11.16,6,16.69l.08.24c.83,2.33,4.57,1.32,3.73-1l-4.89-13.66-11.78-32.93-14.2-39.72L88.4,179.3c-2-5.56-3.9-11.16-6-16.69l-.08-.24A2,2,0,0,0,80,161l-12.61,4.51A2,2,0,0,0,66,167.91l2.72,14.63,6.53,35.13,7.9,42.51L90,296.93,92.25,309c.35,1.91.61,3.87,1.07,5.76,0,.08,0,.17,0,.25a1.94,1.94,0,0,0,2.38,1.35l30.14-12.32,4.31-1.76a2,2,0,0,0,1.35-2.38A2,2,0,0,0,129.16,298.59Z"/><path class="cls-17" d="M253.33,87.22a22,22,0,0,1-32.66,29.61"/><path class="cls-1" d="M253.85,87.22l-6.51,5.91a22.06,22.06,0,0,1-6.15,30.63,22,22,0,0,0,12.67-36.54Z"/><path class="cls-5" d="M177.81,71.23a22,22,0,1,1,32.66-29.61"/><g class="cls-18"><path class="cls-6" d="M211.25,40.84l-5,4.52A40.69,40.69,0,0,0,198,41.11a28.72,28.72,0,0,0-19.13-.6c.39-.41.79-.81,1.22-1.19A22,22,0,0,1,211.25,40.84Z"/></g><path class="cls-5" d="M194.55,56l31.71-28.75a3.1,3.1,0,0,1,4.37.21l48,34.47a3.1,3.1,0,0,1-.21,4.37l-40.11,36.37L198.16,139a3.1,3.1,0,0,1-4.37-.21l-29.62-51.1a3.1,3.1,0,0,1,.21-4.37l31.71-28.75"/><path class="cls-19" d="M209.45,40.07,176.78,69.68a22,22,0,0,1-4-6.16l30.87-28A22,22,0,0,1,209.45,40.07Z"/><g class="cls-18"><path class="cls-6" d="M276.57,65l-8.15,7.39q-1.33-2.1-2.85-4.1C257.65,58,246.25,51,235,44.41c-5.87-3.43-11.85-6.83-18.4-8.62-.78-.21-1.58-.4-2.37-.56L224.46,26a3.1,3.1,0,0,1,4.37.21l48,34.47A3.1,3.1,0,0,1,276.57,65Z"/></g><path class="cls-7" d="M216,123.36,198.67,139a3.1,3.1,0,0,1-4.37-.21L164.68,87.73a3.1,3.1,0,0,1,.21-4.37l17.46-15.83c3.84,11.26,8.25,22.3,14.29,32.52A90.92,90.92,0,0,0,216,123.36Z"/><path class="cls-4" d="M195.41,57.37,221.2,34l5.09-4.62a7.2,7.2,0,0,1,.82-.74c.91-.59,1.52.14,2.23.66,3.35,2.46,6.75,4.85,10.12,7.28l33.77,24.27c1.18.85,2.5,1.64,3.6,2.59.07.06.19.1.25.18-.2-.29-.15,0-.19.08s.06.45,0,.65a1.28,1.28,0,0,1-.4.62c-.18.2-.41.37-.61.55l-11.2,10.15L236.94,100.8l-20.8,18.86-15.22,13.8-4.14,3.75a3.19,3.19,0,0,1-.7.57c-.74.35-1,.19-1.36-.3-2.33-3.71-4.41-7.6-6.61-11.39L176.8,106.55l-9.38-16.18c-.67-1.15-1.3-2.34-2-3.47-.51-.81-.93-1.37-.16-2.19.27-.28.59-.53.87-.79l28.22-25.58,2.6-2.36c1.85-1.68-.89-4.4-2.73-2.73L167.66,77.31,163,81.57a6.18,6.18,0,0,0-1.57,2,5.59,5.59,0,0,0,.65,5.3c2.18,3.48,4.13,7.13,6.2,10.69l21.26,36.66c.67,1.16,1.3,2.37,2,3.49,1.82,2.83,5.52,2.46,7.76.48,3.56-3.15,7-6.39,10.57-9.59l28.7-26L260.12,85l15.31-13.89C276.62,70,277.83,69,279,67.88c2.24-2.09,2.51-5.81-.12-7.74-9.59-7-19.34-13.9-29-20.84L234.26,28.08c-1-.74-2.11-1.43-3.1-2.23l-.07-.05c.13.1.18.1,0-.06a5.45,5.45,0,0,0-.83-.59,5.07,5.07,0,0,0-4.6-.13,7.69,7.69,0,0,0-1.83,1.36L195.38,52.17l-2.71,2.46c-1.85,1.68.89,4.4,2.73,2.73Z"/><line class="cls-10" x1="167.87" y1="93.73" x2="236.15" y2="31.82"/><path class="cls-4" d="M169.24,95.1,176,88.92l16.26-14.74,19.76-17.92,17-15.42c2.76-2.5,5.71-4.89,8.32-7.55l.12-.11c1.85-1.68-.89-4.4-2.73-2.73L228,36.63,211.72,51.37,192,69.29l-17,15.42c-2.76,2.5-5.71,4.89-8.32,7.55l-.12.11c-1.85,1.68.89,4.4,2.73,2.73Z"/><path class="cls-4" d="M178.41,69.09a20.11,20.11,0,1,1,29.93-26.88c1.69,1.83,4.42-.91,2.73-2.73a24,24,0,1,0-35.4,32.35c1.66,1.86,4.39-.88,2.73-2.73Z"/><path class="cls-4" d="M252.48,89.36a20.11,20.11,0,1,1-29.93,26.88c-1.69-1.83-4.42.91-2.73,2.73a24,24,0,1,0,35.4-32.35c-1.66-1.86-4.39.88-2.73,2.73Z"/><path class="cls-4" d="M173.67,63.77l26.55-24.07L204,36.23c1.11-1-.54-2.64-1.64-1.64L175.84,58.67,172,62.13c-1.11,1,.54,2.64,1.64,1.64Z"/><path class="cls-4" d="M178,58.62l5.28,5.83c.67.74,1.76-.36,1.09-1.09l-5.28-5.83c-.67-.74-1.76.36-1.09,1.09Z"/><path class="cls-4" d="M183.57,53.54l5.28,5.83c.67.74,1.76-.36,1.09-1.09l-5.28-5.83c-.67-.74-1.76.36-1.09,1.09Z"/><path class="cls-4" d="M189.17,48.46l5.28,5.83c.67.74,1.76-.36,1.09-1.09l-5.28-5.83c-.67-.74-1.76.36-1.09,1.09Z"/><path class="cls-4" d="M194.78,43.38l5.28,5.83c.67.74,1.76-.36,1.09-1.09l-5.28-5.83c-.67-.74-1.76.36-1.09,1.09Z"/><circle class="cls-5" cx="74.57" cy="151.2" r="25.49"/><path class="cls-4" d="M98.32,150.79a23.55,23.55,0,1,1-18.93-23.1,23.77,23.77,0,0,1,18.93,23.1c0,2.49,3.88,2.49,3.87,0a27.42,27.42,0,1,0-21.94,26.87,27.75,27.75,0,0,0,21.94-26.87C102.21,148.3,98.34,148.3,98.32,150.79Z"/><circle class="cls-19" cx="74.99" cy="150.44" r="8.25"/><path class="cls-4" d="M58.5,130c-9.31-10-11.09-24.48-9.93-37.54A88.11,88.11,0,0,1,61.1,54.12C69.27,41,81.53,30.27,96.1,24.87a91.81,91.81,0,0,1,40.72-4.81c13.3,1.31,27.1,5.49,37.57,14.08q1.91,1.57,3.66,3.32c1.76,1.76,4.5-1,2.73-2.73-10.14-10.11-24.13-15.59-38.09-17.78a97.6,97.6,0,0,0-43.56,2.82,74.62,74.62,0,0,0-38.05,27.5C52.49,59,47.3,73.19,45.28,87.51c-2,13.87-1.17,29.5,7.25,41.28a39.21,39.21,0,0,0,3.23,4c1.7,1.82,4.43-.92,2.73-2.73Z"/><path class="cls-5" d="M171.67,319.57H54.88a3.1,3.1,0,0,1-3.09-3.09h0a18.56,18.56,0,0,1,18.56-18.56H156.2a18.56,18.56,0,0,1,18.56,18.56h0A3.1,3.1,0,0,1,171.67,319.57Z"/><path class="cls-7" d="M67.51,316.73h0a18.56,18.56,0,0,1,18.56-18.56h-16a18.56,18.56,0,0,0-18.56,18.56h0a3.1,3.1,0,0,0,3.09,3.09h16A3.1,3.1,0,0,1,67.51,316.73Z"/><g class="cls-20"><path class="cls-6" d="M157.23,315.7h0a18.56,18.56,0,0,0-18.56-18.56h16a18.56,18.56,0,0,1,18.56,18.56h0a3.1,3.1,0,0,1-3.09,3.09h-16A3.1,3.1,0,0,0,157.23,315.7Z"/></g><path class="cls-4" d="M171.93,317.38H69.59c-4.73,0-9.51.21-14.24,0-1.77-.08-1.42-2-1.25-3.3a16.68,16.68,0,0,1,4.63-9.5,17.18,17.18,0,0,1,12.57-5h79.81c1.75,0,3.5,0,5.26,0a16.87,16.87,0,0,1,15.14,9.53A16.24,16.24,0,0,1,173,314c.14,1.06.62,3.3-1,3.39-2.48.13-2.49,4,0,3.87a5.15,5.15,0,0,0,4.8-3.54c.57-1.87.13-4.18-.28-6a20.45,20.45,0,0,0-5.85-10.29,21.09,21.09,0,0,0-14.73-5.65H74.47c-1.87,0-3.78-.09-5.65.08A20.74,20.74,0,0,0,51.07,310c-1.15,3.55-2.13,9.2,2.28,10.9a6.48,6.48,0,0,0,2.41.35H171.93C174.42,321.25,174.42,317.38,171.93,317.38Z"/><path class="cls-5" d="M194.27,336.07H32.19A3.1,3.1,0,0,1,29.1,333h0a18.56,18.56,0,0,1,18.56-18.56H178.8A18.56,18.56,0,0,1,197.36,333h0A3.1,3.1,0,0,1,194.27,336.07Z"/><g class="cls-20"><path class="cls-6" d="M178.64,312.87H165.39A18.56,18.56,0,0,1,184,331.43h0a3.1,3.1,0,0,1-3.09,3.09h13.25a3.1,3.1,0,0,0,3.09-3.09h0A18.56,18.56,0,0,0,178.64,312.87Z"/></g><path class="cls-7" d="M47.64,334h0A18.56,18.56,0,0,1,66.2,315.44H48A18.56,18.56,0,0,0,29.46,334h0a3.1,3.1,0,0,0,3.09,3.09H50.73A3.1,3.1,0,0,1,47.64,334Z"/><path class="cls-4" d="M194.62,333.88H39.19c-2.11,0-4.25.09-6.36,0-2.49-.11-1.28-4-.87-5.53a16.79,16.79,0,0,1,9.57-11c3.19-1.35,6.42-1.3,9.77-1.3H179.15a16.87,16.87,0,0,1,12.78,6,16.38,16.38,0,0,1,3.27,6.28c.32,1.17,1.59,5.41-.58,5.53-2.48.13-2.49,4,0,3.87,7.35-.4,5-9.83,2.92-14.08a20.64,20.64,0,0,0-12-10.43c-3.29-1.1-6.63-1-10-1H48.5a20.78,20.78,0,0,0-19.15,12.06c-1.87,4.19-3.89,13.17,3.21,13.46.42,0,.85,0,1.27,0H194.62C197.11,337.75,197.11,333.88,194.62,333.88Z"/><path class="cls-4" d="M97.47,164.66A204.06,204.06,0,0,1,140.16,176c12.52,4.84,25.83,10.59,34.76,21,8.13,9.49,12.13,21.91,13.87,34.1a116.41,116.41,0,0,1-1.38,39.52,120.72,120.72,0,0,1-17.15,41.82c-1.36,2.09,2,4,3.34,2a124.15,124.15,0,0,0,19.54-79.29c-1.26-12.83-4.7-25.9-12.18-36.58-8.19-11.68-20.66-18.28-33.5-23.72A205.26,205.26,0,0,0,98.5,160.93a2,2,0,0,0-2.38,1.35,2,2,0,0,0,1.35,2.38Z"/><path class="cls-4" d="M215.18,250.75H638.33c5.71,0,11.44.11,17.15,0h.75c3.48,0,3.49-5.41,0-5.41H233.08c-5.71,0-11.44-.11-17.15,0h-.75c-3.48,0-3.49,5.41,0,5.41Z"/><path class="cls-21" d="M650.36,277.85a43.75,43.75,0,0,1-8.29-45c.28-.69.72-1.48,1.46-1.52a2,2,0,0,1,1.34.68,60.09,60.09,0,0,1,19.46,43.62"/><path class="cls-4" d="M652,274.66a41.06,41.06,0,0,1-10-20.86,42.16,42.16,0,0,1-.31-11.57,37.7,37.7,0,0,1,1-5.48q.39-1.5.9-3a14.06,14.06,0,0,0,.54-1.46c.2-.89.41,0-.26-.13l-1.17-.32a8.89,8.89,0,0,1,2.3,2q1,1,2,2.08a53.33,53.33,0,0,1,3.81,4.65,60.63,60.63,0,0,1,6,10.32A57.13,57.13,0,0,1,662,274.12c0,3,4.67,3,4.64,0a62.87,62.87,0,0,0-15.25-40.24q-1.75-2-3.69-3.89c-1.39-1.34-3-3-5.11-2.35-1.89.55-2.59,2.51-3.2,4.17a40.37,40.37,0,0,0-1.48,5,46.68,46.68,0,0,0,.1,20.68,45.33,45.33,0,0,0,10.69,20.43c2,2.21,5.3-1.08,3.28-3.28Z"/><path class="cls-21" d="M666.61,283.26a43.75,43.75,0,0,1-8.29-45c.28-.69.72-1.48,1.46-1.52a2,2,0,0,1,1.34.68,60.09,60.09,0,0,1,19.46,43.62"/><path class="cls-4" d="M668.25,280.07a41.06,41.06,0,0,1-10-20.86,42.16,42.16,0,0,1-.31-11.57,37.7,37.7,0,0,1,1-5.48q.39-1.5.9-3a14.06,14.06,0,0,0,.54-1.46c.2-.89.41,0-.26-.13l-1.17-.32a8.89,8.89,0,0,1,2.3,2q1,1,2,2.08a53.33,53.33,0,0,1,3.81,4.65,60.63,60.63,0,0,1,6,10.32,57.13,57.13,0,0,1,5.15,23.22c0,3,4.67,3,4.64,0a62.87,62.87,0,0,0-15.25-40.24q-1.75-2-3.69-3.89c-1.39-1.34-3-3-5.11-2.35-1.89.55-2.59,2.51-3.2,4.17a40.37,40.37,0,0,0-1.48,5,46.68,46.68,0,0,0,.1,20.68A45.33,45.33,0,0,0,665,283.36c2,2.21,5.3-1.08,3.28-3.28Z"/><path class="cls-22" d="M676.66,270.11a43.75,43.75,0,0,1-8.29-45c.28-.69.72-1.48,1.46-1.52a2,2,0,0,1,1.34.68,60.09,60.09,0,0,1,19.46,43.62"/><path class="cls-4" d="M678.3,266.92a41.06,41.06,0,0,1-10-20.86,42.16,42.16,0,0,1-.31-11.57,37.7,37.7,0,0,1,1-5.48q.39-1.5.9-3a14.06,14.06,0,0,0,.54-1.46c.2-.89.41,0-.26-.13l-1.17-.32a8.89,8.89,0,0,1,2.3,2q1,1,2,2.08a53.33,53.33,0,0,1,3.81,4.65,60.63,60.63,0,0,1,6,10.32,57.13,57.13,0,0,1,5.15,23.22c0,3,4.67,3,4.64,0a62.87,62.87,0,0,0-15.25-40.24q-1.75-2-3.69-3.89c-1.39-1.34-3-3-5.11-2.35-1.89.55-2.59,2.51-3.2,4.17a40.37,40.37,0,0,0-1.48,5,46.68,46.68,0,0,0,.1,20.68A45.33,45.33,0,0,0,675,270.21c2,2.21,5.3-1.08,3.28-3.28Z"/><path class="cls-21" d="M708,288.68a43.75,43.75,0,0,0,8.29-45c-.28-.69-.72-1.48-1.46-1.52a2,2,0,0,0-1.34.68A60.09,60.09,0,0,0,694,286.5"/><path class="cls-4" d="M709.66,288.77a46.47,46.47,0,0,0,11.27-38.64,41.27,41.27,0,0,0-1.11-4.91A22,22,0,0,0,718,240.4a3.67,3.67,0,0,0-5.08-1.55,20.73,20.73,0,0,0-4.19,3.88,61.93,61.93,0,0,0-11.93,18.18A62.56,62.56,0,0,0,691.73,285c0,3,4.61,3,4.64,0a57.13,57.13,0,0,1,5.15-23.22,60.53,60.53,0,0,1,6-10.32,53.48,53.48,0,0,1,3.81-4.65q1-1.07,2-2.08a8.89,8.89,0,0,1,2.3-2l-1.17.32c-.67.09-.46-.77-.26.13a14.06,14.06,0,0,0,.54,1.46q.51,1.47.9,3a37.7,37.7,0,0,1,1,5.48,42.16,42.16,0,0,1-.31,11.57,41.06,41.06,0,0,1-10,20.86c-2,2.2,1.26,5.49,3.28,3.28Z"/><path class="cls-21" d="M686.78,279.39c13.67-14.77,17.88-37.6,10.38-56.28-.35-.86-.9-1.85-1.83-1.9a2.51,2.51,0,0,0-1.68.86,75.21,75.21,0,0,0-24.36,54.6"/><path class="cls-4" d="M688.42,279.1a57.51,57.51,0,0,0,14-47.5,51.86,51.86,0,0,0-1.38-6.25,29.71,29.71,0,0,0-2.18-6,4,4,0,0,0-6.09-1.48,37,37,0,0,0-4.88,4.67A77.93,77.93,0,0,0,667,274.73c0,3,4.62,3,4.64,0A73,73,0,0,1,687.4,230.2q1.87-2.34,3.92-4.52,1-1.05,2-2.06c.25-.24,2.14-1.72,2.1-2,.27,1.4-.7-.36-.76-.26l.35.64c.15.34.27.7.4,1q.51,1.37.93,2.76a51.33,51.33,0,0,1,1.34,5.47,52.52,52.52,0,0,1-.76,22.29,51.15,51.15,0,0,1-11.79,22.23c-2,2.2,1.26,5.49,3.28,3.28Z"/><path class="cls-23" d="M720.83,303.71V290.62a14.41,14.41,0,0,0-14.37-14.37h-60a14.41,14.41,0,0,0-14.37,14.37V304a26.12,26.12,0,0,0,6.08,16.75h0a48.53,48.53,0,0,0,37.24,17.41h1.82a48.53,48.53,0,0,0,36.67-16.74l.5-.58A26.12,26.12,0,0,0,720.83,303.71Z"/><path class="cls-24" d="M707.49,274.19H704a14.23,14.23,0,0,1,1.38,6.12v13.08A26.12,26.12,0,0,1,699,310.5l-.5.58a48.53,48.53,0,0,1-36.67,16.74H660A48.51,48.51,0,0,1,646.92,326a48.53,48.53,0,0,0,29.56,10h1.82A48.53,48.53,0,0,0,715,319.33l.5-.58a26.12,26.12,0,0,0,6.38-17.11V288.56A14.41,14.41,0,0,0,707.49,274.19Z"/><path class="cls-25" d="M719.1,283.73H687.31a8.77,8.77,0,0,0-8.77,8.77,9.8,9.8,0,0,1-19.59,0,8.77,8.77,0,0,0-8.77-8.77H635.93a14.37,14.37,0,0,1,11.61-5.93h60A14.37,14.37,0,0,1,719.1,283.73Z"/><path class="cls-4" d="M723,302.29v-8.91c0-3.7.12-7.27-1.39-10.76a16.76,16.76,0,0,0-12.92-9.9,33.52,33.52,0,0,0-4.73-.19H647.06a17.57,17.57,0,0,0-9.38,2.46,17,17,0,0,0-8,14.23c0,3,0,6,0,8.94,0,4.1-.06,8.14,1.07,12.13,1.8,6.35,5.87,11.55,10.75,15.87a51.65,51.65,0,0,0,16.69,9.9,54.52,54.52,0,0,0,35.07.36A51.67,51.67,0,0,0,709.95,327c4.85-4.06,9.11-9,11.34-15a28.61,28.61,0,0,0,1.73-9.75c0-3-4.62-3-4.64,0a24.47,24.47,0,0,1-6.21,16,47.28,47.28,0,0,1-14.06,11,49.37,49.37,0,0,1-31.78,4.15A46.87,46.87,0,0,1,650,326.86c-4.78-3.11-9.47-7.24-12.39-12.19a25.66,25.66,0,0,1-3.31-13.4V291c0-3.5.45-6.82,2.86-9.58a12.33,12.33,0,0,1,9.4-4.28c4.09,0,8.18,0,12.27,0h41.86c4.47,0,9-.46,12.85,2.41a12.44,12.44,0,0,1,4.82,10.25v12.48C718.38,305.28,723,305.28,723,302.29Z"/><path class="cls-4" d="M654.49,276.08l.14.16c-.52-.53-.11-.15.06.16.07.12.12.25.19.36.26.45-.1-.37,0,.1a13.33,13.33,0,0,1,.37,1.28c0,.12,0,.24.07.35.08.39,0-.14,0,0,0,.33.06.65.07,1a13.73,13.73,0,0,1-.1,2.06c0-.37,0,.23-.05.33s-.07.39-.11.59c-.09.46-.21.91-.33,1.36a25,25,0,0,1-1.08,3.09,44.43,44.43,0,0,1-4.15,7.39,39.27,39.27,0,0,1-4.8,6.24,21.09,21.09,0,0,0-5.53,8.53c-2.26,7,1.19,13.61,6.28,18.34,1.82,1.69,4.56-1,2.73-2.73-4.25-3.95-7.21-9.13-5.16-14.95,1-2.85,2.63-4.6,4.63-6.65a50.21,50.21,0,0,0,5.84-7.83,44.88,44.88,0,0,0,4-7.69,18.81,18.81,0,0,0,1.44-10.13,7.8,7.8,0,0,0-1.86-4.07c-1.75-1.77-4.49,1-2.73,2.73Z"/><path class="cls-4" d="M670.24,277.62c-.68-.86.11.27.25.55l.13.27c.13.27-.17-.45-.07-.16s.18.47.26.72a13.64,13.64,0,0,1,.41,1.66c0,.16.05.31.08.47-.06-.4,0-.08,0,.13,0,.39.06.78.08,1.18a19.58,19.58,0,0,1-.11,2.64,25.55,25.55,0,0,1-.55,2.85,32,32,0,0,1-1.18,3.67,47.64,47.64,0,0,1-4.76,8.91q-1.78,2.71-3.81,5.26a10.93,10.93,0,0,1-1.69,2,20.44,20.44,0,0,0-6.19,8.75c-2.76,7.67,1.44,15,7,20.17,1.82,1.69,4.56-1,2.73-2.73-4.64-4.3-8.34-10.09-6-16.52a16.92,16.92,0,0,1,5.33-7.08c-.88.74.41-.46.57-.65q1.16-1.42,2.27-2.88c1.32-1.73,2.57-3.51,3.73-5.34a50.57,50.57,0,0,0,4.54-8.95,24.65,24.65,0,0,0,1.7-12.39,11.06,11.06,0,0,0-2.05-5.22,2,2,0,0,0-2.73,0,2,2,0,0,0,0,2.73Z"/><path class="cls-4" d="M686.74,277.62c-.68-.86.11.27.25.55l.13.27c.13.27-.17-.45-.07-.16s.18.47.26.72a13.64,13.64,0,0,1,.41,1.66c0,.16.05.31.08.47-.06-.4,0-.08,0,.13,0,.39.06.78.08,1.18a19.58,19.58,0,0,1-.11,2.64,25.55,25.55,0,0,1-.55,2.85,32,32,0,0,1-1.18,3.67,47.64,47.64,0,0,1-4.76,8.91,42.74,42.74,0,0,1-5.49,7.24,23.84,23.84,0,0,0-6.19,9.41c-2.67,7.9,1.22,15.42,7,20.78,1.82,1.69,4.56-1,2.73-2.73-4.86-4.51-8.26-10.48-6-17.14,1.13-3.26,3-5.4,5.33-7.74a35.1,35.1,0,0,0,2.84-3.55c1.32-1.73,2.57-3.51,3.73-5.34a50.57,50.57,0,0,0,4.54-8.95,24.65,24.65,0,0,0,1.7-12.39,11.06,11.06,0,0,0-2.05-5.22,2,2,0,0,0-2.73,0,2,2,0,0,0,0,2.73Z"/><path class="cls-4" d="M703.39,277.62c-.66-.83.07.22.23.51,0,.08.07.16.11.24.13.27-.17-.45-.07-.16s.17.45.24.67a12,12,0,0,1,.39,1.54c0,.16.05.31.08.47,0,0,0-.25,0,.13s.06.73.07,1.1a18.58,18.58,0,0,1-.11,2.56c0,.18-.08.61-.17,1.06s-.22,1.07-.35,1.59a30.45,30.45,0,0,1-1.15,3.55,45.27,45.27,0,0,1-4.46,8.33,40.42,40.42,0,0,1-5.21,6.88,22.66,22.66,0,0,0-5.91,9c-2.52,7.53,1.17,14.69,6.67,19.8,1.82,1.69,4.56-1,2.73-2.73-4.58-4.25-7.81-9.87-5.64-16.16,1.08-3.12,2.87-5.11,5.06-7.34a50.87,50.87,0,0,0,6.29-8.51,48,48,0,0,0,4.3-8.5,23.41,23.41,0,0,0,1.6-11.79,10.59,10.59,0,0,0-2-5,2,2,0,0,0-2.73,0,2,2,0,0,0,0,2.73Z"/></g></g></svg>