<?xml version="1.0" encoding="utf-8"?>
<!-- Generator: Adobe Illustrator 23.0.0, SVG Export Plug-In . SVG Version: 6.00 Build 0)  -->
<svg version="1.1" id="Layer_1" xmlns="http://www.w3.org/2000/svg" xmlns:xlink="http://www.w3.org/1999/xlink" x="0px" y="0px"
	 viewBox="0 0 200 200" style="enable-background:new 0 0 200 200;" xml:space="preserve">
<style type="text/css">
	.st0{fill:#4373B9;}
	.st1{fill:#FFFFFF;}
</style>
<g>
	<path class="st0" d="M200,100C200,44.8,155.2,0,100,0S0,44.8,0,100c0,49.9,36.6,91.3,84.4,98.8v-69.9H59V100h25.4V78
		c0-25.1,14.9-38.9,37.8-38.9c10.9,0,22.4,2,22.4,2v24.6h-12.6c-12.4,0-16.3,7.7-16.3,15.6V100h27.7l-4.4,28.9h-23.3v69.9
		C163.4,191.3,200,149.9,200,100z"/>
	<path class="st1" d="M138.9,128.9l4.4-28.9h-27.7V81.2c0-7.9,3.9-15.6,16.3-15.6h12.6V41c0,0-11.4-2-22.4-2
		c-22.8,0-37.8,13.8-37.8,38.9v22H59v28.9h25.4v69.9c5.1,0.8,10.3,1.2,15.6,1.2s10.5-0.4,15.6-1.2v-69.9H138.9z"/>
</g>
</svg>
