<svg xmlns="http://www.w3.org/2000/svg" viewBox="0 0 2029.57 1762.24"><defs><style>.cls-1{opacity:0.2;}.cls-2{fill:#d9faff;}.cls-3{fill:#fff;}.cls-4{fill:#e2b38e;}.cls-5{fill:#385868;}.cls-6{fill:#f2f2f2;}.cls-7{fill:#ffc6ad;}.cls-8{fill:#82f0b7;}.cls-9{fill:#bef8d9;}.cls-10{fill:#e39493;}.cls-11{fill:#ef7679;}.cls-12{fill:#db6a72;}.cls-13{fill:#516d7b;}.cls-14{fill:#256075;}.cls-15{fill:#347888;}.cls-16{fill:#68b9e1;}.cls-17{fill:#acd8f8;}.cls-18{opacity:0.4;}</style></defs><title>Asset 290</title><g id="Layer_2" data-name="Layer 2"><g id="Layer_1-2" data-name="Layer 1"><g class="cls-1"><rect class="cls-2" x="505.05" y="200.67" width="1034.94" height="1071.36"/><polygon class="cls-3" points="939.68 221.91 780.06 724.21 689.29 724.21 848.92 221.91 939.68 221.91"/><polygon class="cls-3" points="799.56 221.91 639.94 724.21 587.39 724.21 747 221.91 799.56 221.91"/><polygon class="cls-3" points="1476.88 217.36 1317.25 719.66 1226.49 719.66 1386.12 217.36 1476.88 217.36"/><polygon class="cls-3" points="1336.75 217.36 1177.14 719.66 1124.59 719.66 1284.2 217.36 1336.75 217.36"/><polygon class="cls-3" points="1476.88 756.08 1317.25 1258.37 1226.49 1258.37 1386.12 756.08 1476.88 756.08"/><polygon class="cls-3" points="1336.75 756.08 1177.14 1258.37 1124.59 1258.37 1284.2 756.08 1336.75 756.08"/><polygon class="cls-3" points="939.68 756.08 780.06 1258.37 689.29 1258.37 848.92 756.08 939.68 756.08"/><polygon class="cls-3" points="799.56 756.08 639.94 1258.37 587.39 1258.37 747 756.08 799.56 756.08"/><rect class="cls-4" x="486.84" y="728.76" width="1069.84" height="37.94" rx="8" ry="8" transform="translate(1769.49 -274.03) rotate(90)"/><rect class="cls-4" x="-29.11" y="725.73" width="1069.84" height="37.94" rx="8" ry="8" transform="translate(-238.88 1250.51) rotate(-90)"/><rect class="cls-4" x="1005.83" y="725.73" width="1069.84" height="37.94" rx="8" ry="8" transform="translate(796.05 2285.45) rotate(-90)"/><path class="cls-5" d="M1031.21,1287.65h-21.94a13,13,0,0,1-13-13V220.81a13,13,0,0,1,13-13h21.94a13,13,0,0,1,13,13V1274.65A13,13,0,0,1,1031.21,1287.65ZM1009.28,217.81a3,3,0,0,0-3,3V1274.65a3,3,0,0,0,3,3h21.94a3,3,0,0,0,3-3V220.81a3,3,0,0,0-3-3Z"/><path class="cls-5" d="M515.26,1284.62H493.33a13,13,0,0,1-13-13V217.78a13,13,0,0,1,13-13h21.94a13,13,0,0,1,13,13V1271.62A13,13,0,0,1,515.26,1284.62ZM493.33,214.78a3,3,0,0,0-3,3V1271.62a3,3,0,0,0,3,3h21.94a3,3,0,0,0,3-3V217.78a3,3,0,0,0-3-3Z"/><path class="cls-5" d="M1550.2,1284.62h-21.94a13,13,0,0,1-13-13V217.78a13,13,0,0,1,13-13h21.94a13,13,0,0,1,13,13V1271.62A13,13,0,0,1,1550.2,1284.62ZM1528.26,214.78a3,3,0,0,0-3,3V1271.62a3,3,0,0,0,3,3h21.94a3,3,0,0,0,3-3V217.78a3,3,0,0,0-3-3Z"/><rect class="cls-4" x="480.8" y="180.94" width="1088.02" height="37.94" rx="8" ry="8"/><path class="cls-5" d="M1559.28,223.88h-1072a13,13,0,0,1-13-13V188.94a13,13,0,0,1,13-13h1072a13,13,0,0,1,13,13v21.94A13,13,0,0,1,1559.28,223.88Zm-1072-37.94a3,3,0,0,0-3,3v21.94a3,3,0,0,0,3,3h1072a3,3,0,0,0,3-3V188.94a3,3,0,0,0-3-3Z"/><rect class="cls-4" x="480.8" y="1252.3" width="1088.02" height="37.94" rx="8" ry="8"/><path class="cls-5" d="M1559.28,1295.24h-1072a13,13,0,0,1-13-13V1260.3a13,13,0,0,1,13-13h1072a13,13,0,0,1,13,13v21.94A13,13,0,0,1,1559.28,1295.24Zm-1072-37.94a3,3,0,0,0-3,3v21.94a3,3,0,0,0,3,3h1072a3,3,0,0,0,3-3V1260.3a3,3,0,0,0-3-3Z"/><rect class="cls-4" x="480.8" y="721.17" width="1088.02" height="37.94" rx="8" ry="8"/><path class="cls-5" d="M1559.28,764.11h-1072a13,13,0,0,1-13-13V729.17a13,13,0,0,1,13-13h1072a13,13,0,0,1,13,13v21.94A13,13,0,0,1,1559.28,764.11Zm-1072-37.94a3,3,0,0,0-3,3v21.94a3,3,0,0,0,3,3h1072a3,3,0,0,0,3-3V729.17a3,3,0,0,0-3-3Z"/></g><g class="cls-1"><line class="cls-6" x1="276.42" y1="1059.61" x2="152.42" y2="1059.01"/><rect class="cls-5" x="210.42" y="997.3" width="8" height="124" transform="matrix(0, -1, 1, 0, -845.92, 1268.57)"/><line class="cls-6" x1="437.33" y1="1088.53" x2="313.33" y2="1087.93"/><rect class="cls-5" x="371.33" y="1026.23" width="8" height="124" transform="translate(-714.71 1458.27) rotate(-89.72)"/><line class="cls-6" x1="161.71" y1="1215.48" x2="162.32" y2="1143.59"/><rect class="cls-5" x="126.07" y="1175.54" width="71.9" height="8" transform="matrix(0.01, -1, 1, 0.01, -1018.82, 1331.76)"/><line class="cls-6" x1="330.01" y1="1087.05" x2="330.61" y2="1015.15"/><rect class="cls-5" x="294.36" y="1047.1" width="71.9" height="8" transform="matrix(0.01, -1, 1, 0.01, -723.5, 1372.67)"/><rect class="cls-6" x="198.28" y="1059.01" width="193.29" height="55.4" rx="18.76" ry="18.76" transform="translate(589.85 2173.41) rotate(-180)"/><path class="cls-5" d="M372.81,1118.41H217a22.79,22.79,0,0,1-22.76-22.76v-17.87A22.79,22.79,0,0,1,217,1055H372.81a22.79,22.79,0,0,1,22.76,22.76v17.87A22.79,22.79,0,0,1,372.81,1118.41ZM217,1063a14.78,14.78,0,0,0-14.76,14.76v17.87A14.78,14.78,0,0,0,217,1110.41H372.81a14.78,14.78,0,0,0,14.76-14.76v-17.87A14.78,14.78,0,0,0,372.81,1063Z"/><rect class="cls-6" x="65.32" y="1114.41" width="193.29" height="55.4" rx="18.76" ry="18.76" transform="translate(323.93 2284.21) rotate(-180)"/><path class="cls-5" d="M239.85,1173.81H84.09A22.79,22.79,0,0,1,61.32,1151v-17.87a22.79,22.79,0,0,1,22.76-22.76H239.85a22.79,22.79,0,0,1,22.76,22.76V1151A22.79,22.79,0,0,1,239.85,1173.81Zm-155.76-55.4a14.78,14.78,0,0,0-14.76,14.76V1151a14.78,14.78,0,0,0,14.76,14.76H239.85A14.78,14.78,0,0,0,254.61,1151v-17.87a14.78,14.78,0,0,0-14.76-14.76Z"/></g><g class="cls-1"><line class="cls-6" x1="215.1" y1="228.46" x2="91.1" y2="227.85"/><rect class="cls-5" x="149.1" y="166.15" width="8" height="124" transform="matrix(0, -1, 1, 0, -75.8, 380.14)"/><line class="cls-6" x1="376.01" y1="257.38" x2="252.01" y2="256.78"/><rect class="cls-5" x="310.01" y="195.08" width="8" height="124" transform="translate(55.41 569.83) rotate(-89.72)"/><line class="cls-6" x1="100.39" y1="384.33" x2="100.99" y2="312.44"/><rect class="cls-5" x="64.74" y="344.38" width="71.9" height="8" transform="matrix(0.01, -1, 1, 0.01, -248.52, 446.18)"/><line class="cls-6" x1="268.68" y1="255.9" x2="269.28" y2="184"/><rect class="cls-5" x="233.03" y="215.95" width="71.9" height="8" transform="matrix(0.01, -1, 1, 0.01, 46.81, 487.1)"/><rect class="cls-6" x="136.96" y="227.85" width="193.29" height="55.4" rx="18.76" ry="18.76" transform="translate(467.21 511.11) rotate(-180)"/><path class="cls-5" d="M311.48,287.25H155.73A22.79,22.79,0,0,1,133,264.49V246.62a22.79,22.79,0,0,1,22.76-22.76H311.48a22.79,22.79,0,0,1,22.76,22.76v17.87A22.79,22.79,0,0,1,311.48,287.25Zm-155.76-55.4A14.78,14.78,0,0,0,141,246.62v17.87a14.78,14.78,0,0,0,14.76,14.76H311.48a14.78,14.78,0,0,0,14.76-14.76V246.62a14.78,14.78,0,0,0-14.76-14.76Z"/><rect class="cls-6" x="4" y="283.26" width="193.29" height="55.4" rx="18.76" ry="18.76" transform="translate(201.29 621.91) rotate(-180)"/><path class="cls-5" d="M178.52,342.66H22.76A22.79,22.79,0,0,1,0,319.89V302a22.79,22.79,0,0,1,22.76-22.76H178.52A22.79,22.79,0,0,1,201.29,302v17.87A22.79,22.79,0,0,1,178.52,342.66ZM22.76,287.25A14.78,14.78,0,0,0,8,302v17.87a14.78,14.78,0,0,0,14.76,14.76H178.52a14.78,14.78,0,0,0,14.76-14.76V302a14.78,14.78,0,0,0-14.76-14.76Z"/></g><g class="cls-1"><line class="cls-6" x1="1868.64" y1="1092.46" x2="1744.64" y2="1091.86"/><rect class="cls-5" x="1802.64" y="1030.16" width="8" height="124.01" transform="translate(705.7 2893.46) rotate(-89.72)"/><line class="cls-6" x1="2029.55" y1="1121.38" x2="1905.55" y2="1120.78"/><rect class="cls-5" x="1963.55" y="1059.08" width="8" height="124.01" transform="translate(836.91 3083.15) rotate(-89.72)"/><line class="cls-6" x1="1753.93" y1="1248.34" x2="1754.54" y2="1176.44"/><rect class="cls-5" x="1718.28" y="1208.39" width="71.9" height="8" transform="matrix(0.01, -1, 1, 0.01, 527.33, 2956.5)"/><line class="cls-6" x1="1922.22" y1="1119.9" x2="1922.83" y2="1048.01"/><rect class="cls-5" x="1886.57" y="1079.95" width="71.9" height="8" transform="matrix(0.01, -1, 1, 0.01, 822.65, 2997.42)"/><rect class="cls-6" x="1790.5" y="1091.86" width="193.29" height="55.4" rx="18.76" ry="18.76" transform="translate(3774.29 2239.11) rotate(-180)"/><path class="cls-5" d="M1965,1151.26H1809.27a22.79,22.79,0,0,1-22.76-22.76v-17.87a22.79,22.79,0,0,1,22.76-22.76H1965a22.79,22.79,0,0,1,22.76,22.76v17.87A22.79,22.79,0,0,1,1965,1151.26Zm-155.76-55.4a14.78,14.78,0,0,0-14.76,14.76v17.87a14.78,14.78,0,0,0,14.76,14.76H1965a14.78,14.78,0,0,0,14.76-14.76v-17.87a14.78,14.78,0,0,0-14.76-14.76Z"/><rect class="cls-6" x="1657.54" y="1147.26" width="193.29" height="55.4" rx="18.76" ry="18.76" transform="translate(3508.37 2349.92) rotate(-180)"/><path class="cls-5" d="M1832.06,1206.66H1676.3a22.79,22.79,0,0,1-22.76-22.76V1166a22.79,22.79,0,0,1,22.76-22.76h155.76a22.79,22.79,0,0,1,22.76,22.76v17.87A22.79,22.79,0,0,1,1832.06,1206.66Zm-155.76-55.4a14.78,14.78,0,0,0-14.76,14.76v17.87a14.78,14.78,0,0,0,14.76,14.76h155.76a14.78,14.78,0,0,0,14.76-14.76V1166a14.78,14.78,0,0,0-14.76-14.76Z"/></g><g class="cls-1"><line class="cls-6" x1="1868.64" y1="44.49" x2="1744.64" y2="43.88"/><rect class="cls-5" x="1802.64" y="-17.82" width="8" height="124.01" transform="translate(1753.68 1850.59) rotate(-89.72)"/><line class="cls-6" x1="2029.55" y1="73.41" x2="1905.55" y2="72.81"/><rect class="cls-5" x="1963.55" y="11.1" width="8" height="124.01" transform="translate(1884.87 2040.28) rotate(-89.72)"/><line class="cls-6" x1="1753.93" y1="200.36" x2="1754.54" y2="128.47"/><rect class="cls-5" x="1718.28" y="160.41" width="71.9" height="8" transform="matrix(0.01, -1, 1, 0.01, 1575.26, 1917.22)"/><line class="cls-6" x1="1922.22" y1="71.93" x2="1922.83" y2="0.03"/><rect class="cls-5" x="1886.57" y="31.98" width="71.9" height="8" transform="matrix(0.01, -1, 1, 0.01, 1870.58, 1958.14)"/><rect class="cls-6" x="1790.5" y="43.88" width="193.29" height="55.4" rx="18.76" ry="18.76" transform="translate(3774.29 143.17) rotate(-180)"/><path class="cls-5" d="M1965,103.29H1809.27a22.79,22.79,0,0,1-22.76-22.76V62.65a22.79,22.79,0,0,1,22.76-22.76H1965a22.79,22.79,0,0,1,22.76,22.76V80.52A22.79,22.79,0,0,1,1965,103.29Zm-155.76-55.4a14.78,14.78,0,0,0-14.76,14.76V80.52a14.78,14.78,0,0,0,14.76,14.76H1965a14.78,14.78,0,0,0,14.76-14.76V62.65A14.78,14.78,0,0,0,1965,47.88Z"/><rect class="cls-6" x="1657.54" y="99.29" width="193.29" height="55.4" rx="18.76" ry="18.76" transform="translate(3508.37 253.97) rotate(-180)"/><path class="cls-5" d="M1832.06,158.69H1676.3a22.79,22.79,0,0,1-22.76-22.76V118a22.79,22.79,0,0,1,22.76-22.76h155.76A22.79,22.79,0,0,1,1854.83,118v17.87A22.79,22.79,0,0,1,1832.06,158.69Zm-155.76-55.4A14.78,14.78,0,0,0,1661.54,118v17.87a14.78,14.78,0,0,0,14.76,14.76h155.76a14.78,14.78,0,0,0,14.76-14.76V118a14.78,14.78,0,0,0-14.76-14.76Z"/></g><rect class="cls-5" x="312.78" y="1752.24" width="1363" height="10"/><rect class="cls-5" x="1703.78" y="1752.24" width="125" height="10"/><rect class="cls-5" x="204.78" y="1752.24" width="87" height="10"/><path class="cls-7" d="M1120.67,957.38V1007a49.59,49.59,0,0,0,49.59,49.59h60.51a102.81,102.81,0,0,1,102.81,102.81v283.73H795.1V1159.4A102.81,102.81,0,0,1,897.91,1056.6h60.51A49.59,49.59,0,0,0,1008,1007V957.38"/><path class="cls-8" d="M1329.44,1162.5v283.74H795.1V1162.5A102.81,102.81,0,0,1,897.91,1059.7h28.77c2.71,25.77,20.82,50.22,43.26,63.15,22.79,13.13,49.57,17.64,75.84,18.83,33.69,1.53,68.19-2.22,99-15.94,29.25-13,55-36.69,67.73-66h14.12A102.81,102.81,0,0,1,1329.44,1162.5Z"/><path class="cls-9" d="M1327.37,1162.5v48.58a102.81,102.81,0,0,0-102.81-102.81h-14.12c-12.76,29.35-38.48,53-67.73,66-30.81,13.72-65.31,17.47-99,15.94-26.27-1.19-53.05-5.71-75.84-18.83-22.45-12.93-40.56-37.38-43.26-63.15H895.84A102.81,102.81,0,0,0,793,1211.08V1162.5A102.81,102.81,0,0,1,895.84,1059.7h28.77c2.71,25.77,20.82,50.22,43.26,63.15,22.79,13.13,49.57,17.64,75.84,18.83,33.69,1.53,68.19-2.22,99-15.94,29.25-13,55-36.69,67.73-66h14.12A102.81,102.81,0,0,1,1327.37,1162.5Z"/><path class="cls-10" d="M1118.6,964.61v37.71l-.9.22a292.74,292.74,0,0,1-111.76,4.71V964.61Z"/><path class="cls-5" d="M1110.53,957.38c0,16.77-.3,33.56,0,50.32a56.07,56.07,0,0,0,21.82,43.41c10.55,8.11,23,11.48,36.19,11.48,19.18,0,38.36-.08,57.54,0,31.47.13,61.66,15.15,79.76,41.14,12.49,17.93,17.57,38.34,17.57,60v244.1c0,11.13-.88,22.68,0,33.79,0,.51,0,1,0,1.56l6-6H812.81c-6.8,0-14.14-.79-20.92,0a8.23,8.23,0,0,1-.93,0l6,6V1169.8c0-15.35.79-30.16,6.27-44.81,11.66-31.16,39.74-54.31,72.25-60.68,9.51-1.86,19.07-1.71,28.7-1.71h35.58c8.73,0,17.68.53,26.27-1.26a55.71,55.71,0,0,0,37.9-29.33c5.24-10.57,5.94-21.45,5.94-32.95V957.38c0-7.72-12-7.73-12,0,0,16.77.3,33.56,0,50.32a44.08,44.08,0,0,1-24.63,38.59c-9.14,4.51-18.74,4.3-28.59,4.3h-35c-8.49,0-17.11-.34-25.58.46a109.92,109.92,0,0,0-82.74,51c-11.66,18.7-16.33,39.82-16.33,61.64V1344.6c0,32.29-.76,64.69,0,97,0,.52,0,1,0,1.56a6.09,6.09,0,0,0,6,6h472.27c21.71,0,43.57.78,65.27,0,.31,0,.62,0,.93,0a6.09,6.09,0,0,0,6-6V1169.8c0-15.47-.68-30.65-5.8-45.5a110.11,110.11,0,0,0-68.54-68.12c-22.18-7.48-46.14-5.58-69.2-5.58-8.5,0-17,.09-25.51,0a44.06,44.06,0,0,1-37-20.11c-6.23-9.83-6.85-20.24-6.85-31.42V957.38c0-7.72-12-7.73-12,0Z"/><path class="cls-11" d="M992.77,375.48c7.12,20,28.67,30.6,48.81,37.27a340.84,340.84,0,0,0,112.75,17.17c27.34-.48,55-4.22,81.79,1.4s53.35,23.48,59,50.23"/><path class="cls-11" d="M966.73,288.37c54.79-40.68,121.19-69.09,189.4-67s137.39,38.78,166.7,100.4c39.51,83,3.16,185.47-9.77,271.1a835.64,835.64,0,0,0,6.52,286.32c8.61,43.49,21.1,87.25,44.34,125.37,5.57,9.14,16.13,18.55,20.19,28.12,5.17,12.19,1,12.6-13.29,16.59-21.27,5.93-44.37,3.33-66,1.75-24.06-1.75-48.36-3.79-71.3-11.22-38-12.31-77-46.38-70.37-90.44"/><path class="cls-12" d="M1373.92,1049.25c-21.27,5.93-44.37,3.33-66,1.76-24.06-1.76-48.36-3.79-71.3-11.22-38-12.32-77-46.38-70.38-90.44L1153.9,908c20.75,39,60.53,68.26,103.8,80.22,33.27,9.2,68.08,9.51,102.27,4q3.35,6.26,7.06,12.35c5.57,9.14,16.13,18.54,20.18,28.11C1392.39,1044.86,1388.22,1045.26,1373.92,1049.25Z"/><path class="cls-11" d="M916,545c57.68-6,43.53-79.67,66-133.13,14.38-34.22,19.25-76.4-2.61-106.41-31.8-43.66-95.54-53.42-144.11-36.05-66.28,23.7-78.57,94-81.24,156.94-2.52,59.29,10.71,117.77,26.59,174.5C789.94,634,795.69,668,800.75,702c10.68,71.85,18.22,146,.57,216.45s-65.09,137.36-134.15,159.88c57,8.95,117.56,5.24,168.82-21.2s91.37-78.29,93.78-135.92"/><path class="cls-12" d="M828.75,1027.2c-37.12,19.15-79.13,26.36-121.11,25.5a170.15,170.15,0,0,1-47.7,24.64c57,8.95,117.56,5.24,168.82-21.2s91.37-78.29,93.78-135.92l-.72-19.8C915.8,954.35,877.29,1002.17,828.75,1027.2Z"/><path class="cls-7" d="M1226.21,427.5c14.12,24.74,21.88,52.35,21.54,84.06-.48,45.15-16.64,90.07-9,133.92,2.22,12.71,6.36,24.58,9.55,36.88,18.9,72.8,1.81,158.69-36.4,214.59s-94.6,83.23-149.77,83.17h-.36c-55.17.06-111.56-27.27-149.77-83.17s-55.3-141.79-36.4-214.59c3.19-12.3,7.33-24.16,9.55-36.88,7.65-43.86-8.51-88.78-9-133.92-.33-31.7,7.42-63.45,21.54-88.19l35.87-55.1,102.32-30,63,12.4"/><path class="cls-10" d="M1211.92,864.91c-38.21,55.9-94.6,83.23-149.77,83.17h-.36c-55.17.06-111.56-27.27-149.77-83.17-25.34-37.08-41.38-87.36-43.8-138.25-3,59.66,14,121.52,43.8,165.13,38.21,55.9,94.6,83.23,149.77,83.17h.36c55.17.06,111.56-27.27,149.77-83.17,29.81-43.61,46.76-105.47,43.8-165.12C1253.3,777.55,1237.26,827.83,1211.92,864.91Z"/><path class="cls-10" d="M1238.58,455.17c-.13,0-.27-.06-.4-.09q-3-.64-6.07-1.12c-24.87-3.95-50.44-.72-75.72-.28-45.46.79-125-.4-152.92-43.53,27.11,41.81-100.74,112.92-127,127.23l-2-18.74c-.21-2-.38-4.08.69-5.73a8.72,8.72,0,0,1,3.84-2.77c45.47-21.46,78.58-52.47,98.93-99.3.13-.31.26-.62.38-.93.58-1.4,1.15-2.81,1.68-4.24l.09-.22a162.16,162.16,0,0,0,10.51-36.08l6.3,21.22c.29-3,.47-6.06.54-9.06v-.27c.06-3.26,0-6.5-.25-9.72a89,89,0,0,0-4.49-22.68v-4.71l20.77-6.09c-1.54,8.58-4.46,17.63-1.23,25.73,3.61,9.06,13.58,13.6,22.75,16.94a418,418,0,0,0,149.41,25.14c4.52-.07,9.05-.22,13.59-.38l26.19,15.81c.43.76.87,1.54,1.29,2.32l-.39-.06c.57,1,1.12,2,1.66,3A162.12,162.12,0,0,1,1238.58,455.17Z"/><path class="cls-11" d="M994.83,378.58c7.12,20,28.67,30.6,48.81,37.27A340.84,340.84,0,0,0,1156.39,433c27.34-.48,55-4.22,81.79,1.4s53.35,23.48,59,50.23l20.88-157.72-323.5-16.54Z"/><path class="cls-5" d="M1339.83,1058c-9.72,0-19.46-.75-29-1.49l-6.38-.48c-26.21-1.91-49.75-4.09-72.48-11.45-21-6.79-40.69-19.46-54.13-34.77-16.1-18.33-22.9-39.49-19.65-61.17l9.89,1.48c-3.53,23.6,7.44,41.9,17.27,53.09,12.29,14,30.4,25.61,49.7,31.86,21.66,7,44.58,9.13,70.13,11l6.42.49c19.46,1.5,39.58,3,57.93-2.07l2.15-.59c4.06-1.12,8.65-2.39,9.61-3.34,0-.34,0-1.76-1.73-5.88-2.08-4.9-6.45-10.18-10.68-15.29a109.49,109.49,0,0,1-9.18-12.17c-12.61-20.68-31-56.35-45-127a836.28,836.28,0,0,1-6.56-288c2.83-18.77,6.7-37.91,10.79-58.19,14.55-72.05,29.59-146.55-.6-210-13.57-28.53-36.66-52.86-66.76-70.36A205.72,205.72,0,0,0,1156,226.34c-77.32-2.36-144,34.63-186.27,66l-6-8c43.59-32.36,112.37-70.41,192.54-68a212.91,212.91,0,0,1,100.3,28.54c31.85,18.52,56.32,44.35,70.77,74.71,14.19,29.82,20.06,64.68,18,106.58-1.83,36.62-9.34,73.78-16.59,109.72-4.07,20.15-7.91,39.18-10.71,57.7a826.29,826.29,0,0,0,6.48,284.6c13.68,69.09,31.49,103.71,43.71,123.74a101,101,0,0,0,8.34,11c4.69,5.66,9.53,11.52,12.18,17.76,2,4.8,3.63,9.83,1.54,14.15-2.35,4.86-7.77,6.36-16,8.62l-2.12.59C1361.58,1057,1350.72,1058,1339.83,1058Z"/><path class="cls-5" d="M1062.35,985.77h-.76c-60.6,0-116.61-31.1-153.69-85.35C867.2,840.89,852.29,753,870.78,681.76c1.07-4.14,2.26-8.26,3.42-12.25a228.12,228.12,0,0,0,6.05-24.23c4.46-25.55.62-51.23-3.45-78.41-2.66-17.81-5.42-36.23-5.61-54.6-.35-32.82,7.54-65,22.2-90.72l8.69,5c-13.6,23.82-21.21,55-20.88,85.66.19,17.68,2.89,35.75,5.5,53.23,4,26.78,8.15,54.46,3.41,81.61a239.32,239.32,0,0,1-6.29,25.28c-1.13,3.92-2.3,8-3.34,12-17.81,68.62-3.47,153.22,35.69,210.51,35.19,51.48,88.2,81,145.44,81h.75c57.26,0,110.26-29.51,145.45-81,39.16-57.29,53.51-141.89,35.69-210.51-1-4-2.21-8.07-3.34-12a239.8,239.8,0,0,1-6.29-25.28c-4.74-27.14-.59-54.83,3.41-81.61,2.61-17.48,5.32-35.55,5.5-53.23.31-29.69-6.52-56.36-20.89-81.52l8.69-5c15.27,26.75,22.53,55.07,22.2,86.59-.19,18.37-2.95,36.79-5.61,54.6-4.07,27.18-7.91,52.86-3.45,78.41a228.36,228.36,0,0,0,6.05,24.23c1.15,4,2.34,8.11,3.42,12.25,18.5,71.25,3.58,159.13-37.11,218.67C1179,954.67,1123,985.77,1062.35,985.77Z"/><path class="cls-11" d="M980,417c-20.43,48.6-61.72,91.1-112.41,102.89a122.52,122.52,0,0,1-13.82,2.41c-18.12-18.43-50.83-55.5-49.33-81.72,2.07-36.17,63-94.05,77.51-114.72,6.65-9.5,14.39-34.05,20.82-57.83,1.51.23,3,.49,4.51.76,27.66,5.16,53.33,18.76,70.11,41.8C999.2,340.64,994.35,382.82,980,417Z"/><path class="cls-5" d="M721.57,1087.73a357.3,357.3,0,0,1-55.17-4.42l-20.58-3.23,19.81-6.46c61.59-20.09,111.73-80,130.85-156.34,18.07-72.16,9.13-148.56-.67-214.5-4.82-32.42-10.57-67-20-100.58C760.4,547,746.47,487.51,749.07,426.14c2.63-62,14.63-136.43,84.55-161.44a148.78,148.78,0,0,1,81.11-5c29.24,6.45,53,21.26,68.73,42.85,10.84,14.89,16.17,33.27,15.85,54.64-.27,18-4.66,37.57-12.67,56.65a196.36,196.36,0,0,1-52.07,72.4c-24,20.71-51.61,33.19-79.89,36.12l-1-9.95c51.25-5.3,99.83-45.51,123.77-102.44,7.53-17.91,11.64-36.21,11.9-52.92.29-19.16-4.4-35.51-13.93-48.61-14.26-19.58-36-33.06-62.8-39A138.67,138.67,0,0,0,837,274.12c-28.76,10.28-48.88,30.22-61.53,60.94-12.5,30.38-15.35,66.77-16.4,91.51-2.55,60,11.19,118.56,26.41,172.94,9.54,34.07,15.36,69.06,20.22,101.8,9.94,66.9,19,144.46.48,218.4-18,72-62.81,130.1-119.15,156.21,42.32,4.37,97.11,2.38,146.67-23.19,53.12-27.4,88.87-79.09,91.08-131.68l10,.42c-2.35,56.12-40.22,111.13-96.48,140.15C799.72,1081.51,758.3,1087.73,721.57,1087.73Z"/><path class="cls-5" d="M1290.23,482.57c-5.69-26.87-33.26-41.77-55.14-46.37-19.21-4-39.57-3.05-59.26-2.1-7,.34-14.26.69-21.41.81A344.36,344.36,0,0,1,1040,417.49c-28.67-9.49-45.66-22.68-52-40.33l9.42-3.36c5.26,14.76,19.77,25.63,45.68,34.2a334.48,334.48,0,0,0,111.09,16.92c7-.12,14.17-.47,21.1-.8,20.32-1,41.33-2,61.8,2.31a96.25,96.25,0,0,1,39.5,18.17c12.41,9.87,20.49,22.29,23.37,35.91Z"/><path class="cls-5" d="M966.21,592.54c.28-10.26,8.32-18.8,18.8-18.8s18.53,8.54,18.8,18.8c.21,7.71,12.21,7.74,12,0-.45-16.74-13.71-30.8-30.8-30.8s-30.35,14.07-30.8,30.8c-.21,7.72,11.79,7.72,12,0Z"/><path class="cls-5" d="M1109.87,592.54c.28-10.26,8.32-18.8,18.8-18.8s18.53,8.54,18.8,18.8c.21,7.71,12.21,7.74,12,0-.45-16.74-13.71-30.8-30.8-30.8s-30.35,14.07-30.8,30.8c-.21,7.72,11.79,7.72,12,0Z"/><path class="cls-5" d="M1075.65,702.09c-.28,10.26-8.32,18.8-18.8,18.8s-18.53-8.54-18.8-18.8c-.21-7.71-12.21-7.74-12,0,.45,16.74,13.71,30.8,30.8,30.8s30.35-14.07,30.8-30.8c.21-7.72-11.79-7.72-12,0Z"/><path class="cls-12" d="M1320.91,382.76c-1.64-20.78-10.56-40.46-22.55-57.51-30-42.7-79.66-70-131.46-76.42s-105.17,7.22-149.8,34.28c-2.88,1.75-5.91,3.76-7.13,6.91-1.54,4,.29,8.38,1.79,12.38a79.85,79.85,0,0,1,3.75,41.83c-1.55,8.59-4.47,17.66-1.24,25.77,3.61,9.06,13.58,13.61,22.75,16.95a418.08,418.08,0,0,0,149.41,25.13c24.12-.39,48.61-2.83,72.1,2.62s46.53,20.93,52.79,44.23a27.81,27.81,0,0,0,12-23.33"/><path class="cls-12" d="M774.62,503.19a271.49,271.49,0,0,1,3.8-144.81c6-19.51,14.65-39,29.89-52.55s35.52-19.9,55.72-21.9c15.56-1.53,31.55-.61,46.3,4.56,38.82,13.6,63.08,57.07,59.23,98S936.9,463.8,900,481.94c-19.75,9.71-41.53,14.73-61.35,24.3s-38.54,25.36-43.22,46.87"/><path class="cls-3" d="M1249.09,268.06a163.39,163.39,0,0,1,17.77,14.44,176.09,176.09,0,0,1,14.51,15.6,158.72,158.72,0,0,1,19.35,30.27c2.23,4.6,4,8.87,5.43,12.66.68,1.91,1.31,3.68,1.86,5.33l1.32,4.56.52,1.94.37,1.73c.22,1.08.38,2,.49,2.74.22,1.49.21,2.31,0,2.38s-.74-.59-1.43-1.92c-.34-.66-.74-1.49-1.18-2.48l-.7-1.59-.84-1.8-1.91-4.23-2.39-5c-1.75-3.54-3.82-7.52-6.28-11.81a184.55,184.55,0,0,0-20-28.27A193.34,193.34,0,0,0,1261.76,288a173.61,173.61,0,0,0-17.06-13.67A177,177,0,0,0,1226,262.87l-2.33-1.27-2.35-1.17c-1.56-.76-3.09-1.57-4.64-2.29-3.11-1.4-6.13-2.84-9.17-4A183,183,0,0,0,1190.1,248l-4.12-1.11c-1.35-.37-2.67-.75-4-1-2.63-.54-5.13-1.22-7.56-1.55s-4.73-.87-6.94-1l-3.21-.36-1.54-.18-1.49-.07-5.46-.3c-1.67,0-3.21,0-4.6,0l-2,0-1.72.1c-1.07.05-2,.08-2.73.07-1.49,0-2.31-.14-2.36-.4s.66-.64,2.09-1.12c.72-.24,1.61-.51,2.68-.8l1.73-.46,2-.33q2.12-.34,4.73-.7c1.74-.14,3.63-.23,5.68-.34l1.56-.08,1.61,0,3.37.08c2.33,0,4.75.31,7.31.54s5.21.71,8,1.12c1.39.19,2.79.51,4.21.82l4.35.95a162.47,162.47,0,0,1,18.38,5.74c3.2,1.14,6.37,2.55,9.64,3.94,1.62.71,3.23,1.51,4.87,2.28l2.46,1.18,2.44,1.28A166.06,166.06,0,0,1,1249.09,268.06Z"/><path class="cls-3" d="M1217.9,575.94c-1.5,14.52-.88,27.62.8,36.94.81,4.67,1.8,8.39,2.38,11s.87,4.2.39,4.44-1.58-.91-3.14-3.28a51.42,51.42,0,0,1-4.89-10.9c-3.2-9.62-4.74-23.81-3.17-39a187.21,187.21,0,0,1,3.37-21.06c1.36-6.37,2.78-12,4-16.74,2.53-9.43,4.35-15.22,5.4-15.07s1.1,6.33-.08,16.09c-.57,4.88-1.45,10.64-2.4,17S1218.58,568.69,1217.9,575.94Z"/><path class="cls-3" d="M1223,462.33a45.93,45.93,0,0,1,3.19,15.57c0,4.09-.69,6.62-1.72,6.74s-2.25-2.16-3.61-5.76-3-8.52-5-13.77c-1-2.62-2.08-5.08-3.05-7.33l-2.72-6c-1.57-3.44-2.47-5.81-1.66-6.53s3.18.48,6.1,3.43a35.13,35.13,0,0,1,4.48,5.7A47.53,47.53,0,0,1,1223,462.33Z"/><path class="cls-13" d="M774,488a293.51,293.51,0,0,1-1-37.36c.38-5.74.62-11.2,1.31-16.26.31-2.54.53-5,.9-7.34l1.14-6.73c.64-4.3,1.64-8.11,2.39-11.47.4-1.68.74-3.25,1.12-4.67l1.16-3.87c1.41-4.65,2.26-7.18,2.43-7.13s-.36,2.68-1.47,7.38l-.94,3.91c-.31,1.44-.57,3-.9,4.69-.62,3.37-1.48,7.18-2,11.46l-1,6.7c-.31,2.33-.48,4.78-.74,7.29-.6,5-.75,10.45-1.07,16.14a319.18,319.18,0,0,0,1.19,37c1.25,13.1,3.29,25.48,5.48,36.67l1.73,8.16c.27,1.33.56,2.62.89,3.89l.91,3.76c.61,2.46,1.14,4.86,1.76,7.13l1.77,6.54c1.07,4.19,2.25,7.91,3.2,11.21l1.34,4.59,1.2,3.84c1.42,4.62,2.13,7.21,2,7.27s-1.19-2.42-2.9-7l-1.41-3.78c-.5-1.39-1-2.91-1.55-4.54-1.08-3.27-2.38-7-3.57-11.14l-1.93-6.53c-.67-2.27-1.25-4.67-1.91-7.13l-1-3.77c-.34-1.27-.66-2.57-1-3.9l-1.84-8.18A342.87,342.87,0,0,1,774,488Z"/><path class="cls-13" d="M784.65,435.07a179.89,179.89,0,0,1,3.92-20c.83-3,1.6-5.91,2.49-8.55.44-1.32.82-2.62,1.26-3.83l1.29-3.49c.79-2.23,1.67-4.19,2.4-5.93.37-.86.71-1.67,1-2.4l1-2c1.18-2.37,1.91-3.64,2.07-3.57.38.17-1.87,5.55-4.78,14.48l-1.12,3.51c-.39,1.22-.72,2.51-1.11,3.83-.8,2.64-1.48,5.5-2.24,8.51-1.4,6-2.71,12.72-3.68,19.8s-1.4,13.88-1.62,20.07c0,3.1-.14,6-.06,8.79,0,1.38,0,2.71.07,4l.16,3.68c.47,9.37,1.24,15.16.83,15.22-.17,0-.54-1.39-1.07-4l-.42-2.17c-.14-.79-.25-1.66-.38-2.59-.25-1.86-.59-4-.77-6.35l-.33-3.71c-.11-1.29-.14-2.64-.22-4-.17-2.79-.16-5.77-.18-8.9A179.9,179.9,0,0,1,784.65,435.07Z"/><path class="cls-13" d="M931.6,307.62a119.13,119.13,0,0,1,18.73,24c2.43,4,4.42,8,6.22,11.73s3.22,7.35,4.42,10.67a129.3,129.3,0,0,1,4.78,16c.86,3.85,1.15,6,1,6s-.81-2-2-5.78-2.9-9.13-5.5-15.6c-1.29-3.24-2.87-6.72-4.65-10.41s-3.88-7.53-6.32-11.43a123.35,123.35,0,0,0-18.5-23.35,112.78,112.78,0,0,0-11.8-9.93,104.74,104.74,0,0,0-12.18-7.64l-3-1.56c-1-.5-2-.93-3-1.4-2-1-3.95-1.66-5.83-2.45s-3.77-1.36-5.58-1.92-3.55-1.11-5.25-1.46a94.64,94.64,0,0,0-16.26-2.6c-1-.11-1.84-.15-2.59-.17l-1.9-.11c-1-.08-1.58-.16-1.58-.24s.54-.18,1.57-.27l1.92-.14a24.87,24.87,0,0,1,2.62-.06,77.75,77.75,0,0,1,16.63,1.84c1.75.31,3.52.87,5.4,1.33s3.77,1.16,5.75,1.82,4,1.44,6,2.38c1,.45,2.06.88,3.09,1.38l3.11,1.55a102,102,0,0,1,12.55,7.69A110,110,0,0,1,931.6,307.62Z"/><path class="cls-13" d="M942.7,343.76a98,98,0,0,1,7.37,19.66,85.2,85.2,0,0,1,1.7,9c.17,1.43.42,2.79.5,4.12l.2,3.83a56.52,56.52,0,0,1,0,6.57c0,1-.06,1.87-.13,2.69l-.3,2.25c-.38,2.7-.67,4.16-.85,4.14s-.22-1.53-.14-4.21l.08-2.23c0-.82-.05-1.7-.08-2.65-.09-1.9,0-4.07-.34-6.44l-.36-3.73c-.13-1.29-.43-2.62-.64-4-.37-2.78-1.16-5.68-1.88-8.74a96,96,0,0,0-18.61-36.17c-2.07-2.37-4-4.69-6-6.62-1-1-1.92-2-2.89-2.85l-2.83-2.46c-1.75-1.64-3.55-2.85-5-4-.76-.57-1.45-1.14-2.11-1.61l-1.86-1.23c-2.23-1.5-3.43-2.41-3.35-2.57s1.45.46,3.86,1.72l2,1.06c.72.42,1.45.93,2.27,1.45a56.54,56.54,0,0,1,5.37,3.8l3,2.39c1,.84,2,1.84,3.06,2.81a85.24,85.24,0,0,1,6.35,6.62A98,98,0,0,1,942.7,343.76Z"/><path class="cls-13" d="M836.69,843.22c-.15,10.37-.73,20.49-1.67,30.22s-2.37,19.07-4,27.91l-1.3,6.53c-.45,2.14-1,4.24-1.45,6.32-.91,4.16-2.09,8.13-3.11,12-.54,1.92-1.15,3.79-1.71,5.64s-1.08,3.67-1.73,5.41l-1.8,5.15-.88,2.49-.94,2.4c-1.26,3.16-2.38,6.19-3.67,9s-2.34,5.47-3.59,7.87-2.28,4.68-3.36,6.73l-3.06,5.53c-.47.83-.89,1.62-1.32,2.34l-1.24,2-2,3.13a13.67,13.67,0,0,1-1.76,2.49,13.78,13.78,0,0,1,1.32-2.76l1.76-3.24,1.14-2.06c.39-.74.78-1.54,1.21-2.39l2.84-5.61c1-2.07,2-4.35,3.15-6.78s2.19-5.1,3.38-7.89,2.28-5.82,3.48-9l.9-2.4.83-2.48,1.71-5.13c.61-1.74,1.08-3.56,1.64-5.39s1.12-3.7,1.63-5.61c1-3.85,2.1-7.79,3-11.93.45-2.06,1-4.15,1.38-6.28l1.24-6.49c1.55-8.78,3-18,3.81-27.72s1.45-19.71,1.6-30a501.06,501.06,0,0,0-3-58c-1.89-17.78-4.3-33.71-6.5-47.06s-4.15-24.14-5.47-31.6c-.65-3.73-1.16-6.63-1.47-8.6a13.72,13.72,0,0,1-.35-3,13.72,13.72,0,0,1,.85,2.93c.47,1.94,1.14,4.81,1.94,8.51,1.62,7.4,3.84,18.14,6.27,31.48s5,29.28,7.06,47.12A474.37,474.37,0,0,1,836.69,843.22Z"/><path class="cls-13" d="M862.43,1005a167.11,167.11,0,0,0,14.38-26.1l2.5-6.22.61-1.5c.19-.5.34-1,.51-1.51l1-3c.62-1.95,1.32-3.8,1.81-5.63l1.37-5.28c1-3.34,1.43-6.46,2-9.17.26-1.36.54-2.62.73-3.79l.43-3.21c.54-3.86.92-6,1.09-6s.13,2.18-.1,6.1l-.21,3.27c-.12,1.19-.34,2.47-.53,3.85a93.45,93.45,0,0,1-1.65,9.35l-1.23,5.39c-.45,1.87-1.11,3.76-1.69,5.75l-.93,3c-.16.51-.3,1-.49,1.54l-.59,1.54L879,979.83a145,145,0,0,1-34.11,49.68l-5.06,4.56-1.22,1.1c-.41.36-.85.68-1.27,1l-2.49,2c-1.65,1.26-3.17,2.55-4.76,3.64l-4.59,3.09a93.34,93.34,0,0,1-8.13,4.9c-1.22.68-2.34,1.34-3.41,1.88l-3,1.37c-3.58,1.63-5.58,2.45-5.66,2.29s1.79-1.28,5.2-3.17l2.84-1.56c1-.6,2.1-1.32,3.27-2,2.32-1.5,5.07-3,7.84-5.16l4.43-3.18c1.53-1.11,3-2.43,4.6-3.71l2.41-2c.4-.34.83-.66,1.23-1l1.18-1.11,4.91-4.57A167.08,167.08,0,0,0,862.43,1005Z"/><path class="cls-13" d="M873.71,931.12c.65-4.16,1.06-8.15,1.31-11.79.09-1.82.21-3.56.22-5.18s.05-3.14,0-4.53c0-5.54-.28-9,.1-9s1.19,3.34,1.7,9c.12,1.4.24,2.94.27,4.6s0,3.43,0,5.3a93.3,93.3,0,0,1-3.83,23.93c-.56,1.78-1.08,3.48-1.67,5s-1.14,3-1.69,4.29c-2.24,5.18-4.13,8.12-4.41,8s1-3.37,2.73-8.62c.44-1.31.92-2.75,1.37-4.31s.93-3.23,1.41-5C872.17,939.2,873,935.28,873.71,931.12Z"/><path class="cls-13" d="M1093.57,402.79a265.38,265.38,0,0,0,26.6,4.62c4.13.42,8.05.88,11.75,1.07,1.84.11,3.62.28,5.34.34l4.93.17c3.14.16,6,.09,8.49.12l3.49,0,2.93-.07c3.53-.06,5.49,0,5.5.16s-1.92.46-5.45.83l-2.93.29c-1.07.08-2.24.13-3.5.19-2.51.11-5.38.31-8.55.26h-5c-1.73,0-3.53-.13-5.39-.2-3.73-.1-7.7-.49-11.88-.85a214.7,214.7,0,0,1-53.07-12.32c-3.91-1.52-7.65-2.92-11-4.47-1.7-.76-3.37-1.45-4.93-2.2l-4.47-2.19c-2.87-1.35-5.35-2.8-7.56-4-1.1-.61-2.13-1.17-3.06-1.72l-2.51-1.56c-3-1.88-4.61-3-4.52-3.15s1.87.67,5,2.28l2.6,1.35,3.14,1.52c2.26,1.08,4.78,2.4,7.67,3.63l4.5,2c1.57.7,3.24,1.33,4.94,2,3.4,1.46,7.12,2.77,11,4.21A265.39,265.39,0,0,0,1093.57,402.79Z"/><path class="cls-13" d="M1141.85,400.8c6.24.62,12.21.93,17.65,1.06,2.72,0,5.3.08,7.72,0s4.67-.1,6.73-.19c8.23-.36,13.32-.88,13.38-.49s-5,1.46-13.25,2.29c-2.07.2-4.34.4-6.78.5s-5.06.19-7.81.23c-5.5,0-11.56-.24-17.89-.87s-12.3-1.65-17.69-2.76c-2.69-.6-5.24-1.15-7.6-1.8s-4.56-1.25-6.54-1.86c-7.94-2.48-12.63-4.63-12.52-4.92s5,1.17,13,3.18c2,.5,4.18,1,6.55,1.54s4.9,1,7.56,1.55C1129.71,399.24,1135.61,400.14,1141.85,400.8Z"/><path class="cls-13" d="M1051.14,265.92a171.5,171.5,0,0,1,16.16-8.06c2.56-1.06,5-2.09,7.32-2.91,1.16-.42,2.27-.85,3.36-1.21l3.13-1c8-2.51,13.13-3.39,13.2-3.09s-4.84,1.88-12.61,4.8l-3,1.16c-1.06.4-2.14.88-3.27,1.34-2.27.9-4.63,2-7.14,3.09-5,2.3-10.35,5-15.85,8.13s-10.53,6.42-15,9.54c-2.22,1.6-4.36,3.08-6.29,4.58-1,.74-1.92,1.43-2.81,2.14l-2.54,2c-6.46,5.22-10.25,8.72-10.53,8.44s3.13-4.18,9.36-9.81l2.47-2.18c.86-.75,1.8-1.49,2.75-2.28,1.89-1.59,4-3.16,6.22-4.83A171.53,171.53,0,0,1,1051.14,265.92Z"/><path class="cls-13" d="M1077.16,263.07a101.81,101.81,0,0,1,10-3.8,85.44,85.44,0,0,1,8.48-2.21c4.89-1,8-1.14,8-.82.15.77-11.89,3-25.52,9.17s-23.43,13.43-23.9,12.81c-.2-.25,2-2.45,6-5.42a85.42,85.42,0,0,1,7.32-4.82A101.76,101.76,0,0,1,1077.16,263.07Z"/><path class="cls-13" d="M1300.79,557.16a312.5,312.5,0,0,0-6.73,76.64c.36,9.87,1.11,17.84,1.63,23.35s.89,8.56.71,8.58a7.43,7.43,0,0,1-.57-2.16c-.28-1.43-.69-3.55-1.12-6.29-.82-5.49-1.85-13.47-2.44-23.4a289.17,289.17,0,0,1,6-77.27c1.65-7.41,3.45-14.61,5.5-21.46s4.1-13.41,6-19.67,3.62-12.22,5-17.86c.73-2.81,1.26-5.55,1.84-8.18s1-5.17,1.28-7.62a98,98,0,0,0,.75-23.23c-.18-2.75-.58-4.86-.77-6.3a7.56,7.56,0,0,1-.17-2.24,7.38,7.38,0,0,1,.68,2.13,46.57,46.57,0,0,1,1.25,6.29,88.61,88.61,0,0,1,.05,23.57c-.23,2.49-.73,5.05-1.13,7.75s-1,5.46-1.72,8.3c-1.28,5.72-2.94,11.74-4.78,18l-5.84,19.7C1304.19,542.68,1302.43,549.81,1300.79,557.16Z"/><path class="cls-13" d="M1313.21,949.24a334.78,334.78,0,0,0,15.14,35.64l4,7.72c1.25,2.53,2.71,4.86,4,7.17s2.54,4.55,3.84,6.64l3.76,6c2.32,3.87,4.72,7.17,6.71,10.15,1,1.48,1.93,2.88,2.81,4.13l2.48,3.39c3,4.09,4.55,6.4,4.42,6.51s-2-2-5.2-5.91l-2.67-3.27c-.95-1.22-1.92-2.58-3-4-2.11-2.92-4.63-6.17-7.06-10l-3.92-5.95c-1.35-2.08-2.61-4.32-4-6.61s-2.84-4.63-4.14-7.16l-4.14-7.73a283.86,283.86,0,0,1-25.83-73.51l-1.6-8.63c-.57-2.79-.85-5.54-1.25-8.18s-.77-5.19-1-7.66l-.66-7.09c-.5-4.51-.57-8.62-.74-12.22-.07-1.8-.16-3.47-.18-5l0-4.22c.07-5.07.19-7.87.36-7.87s.39,2.8.63,7.84l.18,4.2c.09,1.53.26,3.2.39,5,.31,3.57.51,7.65,1.11,12.12l.82,7c.29,2.44.76,5,1.15,7.58s.76,5.34,1.37,8.1l1.7,8.54A334.75,334.75,0,0,0,1313.21,949.24Z"/><path class="cls-13" d="M1292.13,901.06c1.38,6.75,2.92,13.13,4.43,18.91.79,2.88,1.51,5.62,2.28,8.17s1.46,4.92,2.13,7.08c2.69,8.63,4.56,13.92,4.2,14.07s-2.76-4.95-5.91-13.49c-.78-2.14-1.62-4.48-2.44-7s-1.66-5.28-2.52-8.17c-1.65-5.79-3.27-12.22-4.66-19s-2.38-13.36-3.12-19.34c-.33-3-.67-5.83-.86-8.5s-.38-5.15-.5-7.43c-.43-9.09-.13-14.72.18-14.73s.73,5.59,1.62,14.59c.23,2.25.47,4.71.8,7.35s.69,5.45,1.09,8.41C1289.7,887.83,1290.78,894.3,1292.13,901.06Z"/><path class="cls-13" d="M1211.06,1007.47a111.39,111.39,0,0,0,16.17,10c2.66,1.23,5.15,2.48,7.6,3.38,1.22.47,2.37,1,3.52,1.37l3.31,1.09c2.09.76,4.06,1.19,5.76,1.67.86.23,1.65.47,2.38.64l2,.43c2.44.54,3.79.92,3.77,1.1s-1.41.13-3.93-.12l-2.09-.22c-.76-.11-1.58-.28-2.46-.44a58.89,58.89,0,0,1-6-1.33l-3.43-1c-1.19-.34-2.39-.82-3.65-1.26-2.54-.83-5.13-2-7.88-3.24a93.5,93.5,0,0,1-30.92-23.46c-1.9-2.32-3.76-4.49-5.24-6.72-.76-1.1-1.54-2.12-2.19-3.17l-1.84-3a58.85,58.85,0,0,1-2.88-5.38c-.39-.81-.78-1.55-1.09-2.25l-.77-2c-.91-2.36-1.33-3.69-1.17-3.75s.9,1.13,2.07,3.33l1,1.84c.37.66.81,1.36,1.26,2.12.92,1.51,1.86,3.29,3.16,5.1l1.94,2.89c.68,1,1.49,2,2.27,3,1.52,2.12,3.39,4.19,5.3,6.41A111.44,111.44,0,0,0,1211.06,1007.47Z"/><path class="cls-13" d="M1248,1012.35a170.82,170.82,0,0,0,19.34,6.74c3.05.79,5.94,1.59,8.69,2.13,1.37.29,2.69.61,4,.84l3.69.64c2.35.46,4.5.68,6.38,1l2.62.37,2.22.24c2.66.3,4.14.55,4.14.73s-1.5.26-4.2.26h-2.25c-.82,0-1.71-.1-2.67-.16-1.91-.15-4.1-.24-6.5-.59l-3.77-.49c-1.31-.18-2.65-.46-4.06-.71-2.81-.46-5.76-1.2-8.88-1.93a137.17,137.17,0,0,1-38.22-16.25c-2.69-1.73-5.27-3.35-7.55-5.05-1.15-.84-2.29-1.61-3.32-2.43l-3-2.37c-1.91-1.48-3.5-3-4.94-4.26-.71-.65-1.38-1.24-2-1.81l-1.57-1.61c-1.87-1.95-2.85-3.08-2.72-3.2s1.33.76,3.4,2.47l1.71,1.43,2.09,1.63c1.51,1.16,3.16,2.56,5.12,3.92l3,2.21c1.05.77,2.2,1.49,3.36,2.28,2.3,1.61,4.88,3.13,7.56,4.78A170.94,170.94,0,0,0,1248,1012.35Z"/><path class="cls-5" d="M1104.85,823c-.33,26.6-21.92,48.78-48.78,48.78s-48.45-22.18-48.78-48.78c-.1-7.72-12.1-7.74-12,0a61.61,61.61,0,0,0,40,57.11c23.52,8.76,51.2,1.28,67.23-18A61.91,61.91,0,0,0,1116.85,823c.1-7.72-11.9-7.73-12,0Z"/><path class="cls-5" d="M920.56,1063.68c2.26,22.84,14.54,43.2,32.21,57.6,20,16.3,44.94,24.16,70.22,27.51,50.48,6.68,107.23,1.09,149.83-29,21.15-14.91,38-34.92,47.41-59.14,2.8-7.2-8.8-10.32-11.57-3.19-16,41.19-56.32,66.74-97.93,76.25-24.07,5.5-49.15,6.37-73.72,4.49-23.57-1.8-47.7-6.92-67.87-19.81-18.91-12.09-34.33-31.91-36.59-54.76-.75-7.61-12.76-7.69-12,0Z"/><path class="cls-14" d="M707.88,1235.38h736.43a28.27,28.27,0,0,1,28.27,28.27v473.06a16.91,16.91,0,0,1-16.91,16.91H696.52a16.91,16.91,0,0,1-16.91-16.91V1263.65A28.27,28.27,0,0,1,707.88,1235.38Z"/><path class="cls-15" d="M1443.87,1234.24H712.69c-17.07,0-30.9,13.06-30.9,29.16v15.39c0-16.1,13.83-29.16,30.9-29.16h731.18c17.07,0,30.9,13.06,30.9,29.16V1263.4C1474.77,1247.29,1460.94,1234.24,1443.87,1234.24Z"/><path class="cls-5" d="M1479.92,1758.61H676.77V1262.88a32.53,32.53,0,0,1,32.49-32.5h738.18a32.53,32.53,0,0,1,32.49,32.5Zm-793.15-10h783.15V1262.88a22.52,22.52,0,0,0-22.49-22.5H709.26a22.52,22.52,0,0,0-22.49,22.5Z"/><path class="cls-5" d="M513.25,1699.24a66.31,66.31,0,1,1,66.5-66.31A66.48,66.48,0,0,1,513.25,1699.24Zm0-114.61a48.31,48.31,0,1,0,48.5,48.3A48.46,48.46,0,0,0,513.25,1584.63Z"/><path class="cls-16" d="M540.75,1583.68v22.12c-6,66.34-65.49,118.44-138,118.44s-132-52.1-138-118.44v-22.12A121.68,121.68,0,0,1,268,1564.6a12.41,12.41,0,0,1,12-9.36H525.46a12.41,12.41,0,0,1,12,9.36A121.68,121.68,0,0,1,540.75,1583.68Z"/><path class="cls-17" d="M540.75,1560.24a44.11,44.11,0,0,1-.92,9H385.59c0,17.67-13.31,32-29.73,32H354a28.62,28.62,0,0,1-21-9.37,33.17,33.17,0,0,1-8.71-22.63H266.67a44.11,44.11,0,0,1-.92-9Z"/><path class="cls-5" d="M403.75,1729.24c-36.13,0-70.66-12.63-97.21-35.56s-42.74-53.92-45.77-87.43l0-.45,0-22.57a127.16,127.16,0,0,1,3.41-19.86A17.4,17.4,0,0,1,281,1550.24H526.46a17.4,17.4,0,0,1,16.87,13.13,127.13,127.13,0,0,1,3.4,19.86l0,.45,0,22.57c-3,33.51-19.29,64.56-45.77,87.43S439.88,1729.24,403.75,1729.24Zm-133-123.67c2.85,30.83,17.87,59.42,42.33,80.54,24.74,21.36,56.94,33.13,90.67,33.13s65.94-11.76,90.67-33.13c24.45-21.12,39.48-49.71,42.33-80.54v-21.66a117.11,117.11,0,0,0-3.12-18.07,7.41,7.41,0,0,0-7.17-5.59H281a7.41,7.41,0,0,0-7.17,5.59,117.12,117.12,0,0,0-3.12,18.07Z"/><path class="cls-16" d="M254.75,1710.24h296a0,0,0,0,1,0,0v0a41,41,0,0,1-41,41h-214a41,41,0,0,1-41-41v0A0,0,0,0,1,254.75,1710.24Z"/><path class="cls-17" d="M544.75,1712.24a42.48,42.48,0,0,1-1,9H383.39c0,17.67-13.85,32-30.92,32h-1.93a30.31,30.31,0,0,1-21.87-9.37,32.47,32.47,0,0,1-9.05-22.63H259.7a42.48,42.48,0,0,1-1-9Z"/><path class="cls-5" d="M510.75,1756.24h-214a46.05,46.05,0,0,1-46-46v-5h306v5A46.05,46.05,0,0,1,510.75,1756.24Zm-249.65-41a36.05,36.05,0,0,0,35.65,31h214a36.06,36.06,0,0,0,35.65-31Z"/><rect class="cls-5" x="467.75" y="1584.74" width="73" height="7"/><g class="cls-18"><ellipse class="cls-3" cx="945.64" cy="725.74" rx="38.77" ry="21"/><ellipse class="cls-3" cx="1166.37" cy="725.74" rx="38.77" ry="21"/></g></g></g></svg>