<?xml version="1.0" encoding="utf-8"?>
<!-- Generator: Adobe Illustrator 23.0.0, SVG Export Plug-In . SVG Version: 6.00 Build 0)  -->
<svg version="1.1" id="Layer_1" xmlns="http://www.w3.org/2000/svg" xmlns:xlink="http://www.w3.org/1999/xlink" x="0px" y="0px"
	 viewBox="0 0 200 200" style="enable-background:new 0 0 200 200;" xml:space="preserve">
<style type="text/css">
	.st0{fill:#02679A;}
	.st1{fill-rule:evenodd;clip-rule:evenodd;fill:#FFFFFF;}
</style>
<g>
	<path id="path14" class="st0" d="M0,14.4C0,6.5,6.6,0,14.8,0h170.4c8.2,0,14.8,6.5,14.8,14.4v172.4c0,8-6.6,14.4-14.8,14.4H14.8
		c-8.2,0-14.8-6.5-14.8-14.4V14.4z"/>
	<path id="path28" class="st1" d="M60.6,168.5V77.6H30.4v90.9H60.6z M45.5,65.2c10.5,0,17.1-7,17.1-15.7
		c-0.2-8.9-6.6-15.7-16.9-15.7c-10.3,0-17.1,6.8-17.1,15.7c0,8.7,6.6,15.7,16.7,15.7H45.5L45.5,65.2z"/>
	<path id="path30" class="st1" d="M77.3,168.5h30.2v-50.8c0-2.7,0.2-5.4,1-7.4c2.2-5.4,7.2-11,15.5-11c10.9,0,15.3,8.3,15.3,20.6
		v48.6h30.2v-52.1c0-27.9-14.9-40.9-34.8-40.9c-16.3,0-23.5,9.1-27.4,15.3h0.2V77.6H77.3C77.7,86.1,77.3,168.5,77.3,168.5
		L77.3,168.5z"/>
</g>
</svg>
